<svg width="531" height="167" viewBox="0 0 531 167" fill="none" xmlns="http://www.w3.org/2000/svg">
<g clip-path="url(#clip0_394_66)">
<path d="M130.284 25.5538C128.392 16.8367 142.69 16.1132 142.117 24.5729C142.108 24.7101 142.199 24.8218 142.199 24.9501C145.72 20.4619 159.922 27.056 150.254 34.3131C150.254 34.3131 148.731 35.3476 148.884 35.4039C154.993 37.6495 151.517 53.0848 140.828 44.1618C135.474 54.4476 124.45 46.559 127.793 39.9814C127.793 39.9814 128.852 38.2928 128.927 38.1479C113.521 37.1265 121.571 18.7126 130.366 25.9309M130.284 25.5538C130.311 25.6818 130.339 25.8075 130.366 25.9309M130.284 25.5538L130.366 25.9309M97.982 42.6859C94.6722 40.6091 99.4632 35.0513 101.831 37.9644C101.869 38.0116 101.935 38.0131 101.974 38.0542C101.845 35.3103 108.825 32.1234 107.64 38.041C107.64 38.041 107.42 38.9383 107.491 38.8992C110.314 37.3399 113.782 43.5605 107.327 44.6951C108.574 49.972 102.316 51.5618 101.49 48.2177C101.49 48.2177 101.348 47.284 101.331 47.2099C95.6214 52.6238 92.8514 43.7489 98.1252 42.7756M97.982 42.6859C98.0306 42.7164 98.0783 42.7463 98.1252 42.7756M97.982 42.6859L98.1252 42.7756M144.016 63.7881C140.863 60.6416 147.937 55.3306 149.774 59.2258C149.804 59.289 149.878 59.3057 149.91 59.3619C150.568 56.1716 159.434 54.0903 156.353 60.6374C156.353 60.6374 155.84 61.6212 155.932 61.5923C159.597 60.439 161.714 68.3953 154.046 68.2318C153.916 74.5947 146.338 75.0004 146.38 70.9598C146.38 70.9598 146.493 69.8521 146.495 69.7626C138.419 74.6987 137.873 63.8439 144.152 63.9241M144.016 63.7881C144.062 63.8343 144.107 63.8796 144.152 63.9241M144.016 63.7881L144.152 63.9241M166.395 44.0693C161.679 40.663 168.406 34.1245 171.797 38.4729C171.852 38.5434 171.945 38.5579 172.001 38.6203C171.786 34.9212 181.642 31.971 180.033 39.6724C180.033 39.6724 179.732 40.8328 179.832 40.7938C183.815 39.2385 188.805 48.2244 179.668 48.525C181.497 55.8274 172.643 56.7747 171.433 52.1402C171.433 52.1402 171.222 50.8631 171.196 50.7604C163.166 56.9328 159.135 44.5241 166.6 44.2166M166.395 44.0693C166.465 44.1193 166.533 44.1684 166.6 44.2166M166.395 44.0693L166.6 44.2166M117.565 57.1193C118.486 51.4745 128.344 54.5103 125.82 59.4044C125.779 59.4837 125.813 59.5724 125.78 59.6486C129.296 57.8319 137.242 65.198 128.867 67.1718C128.867 67.1718 127.576 67.4182 127.665 67.4888C131.232 70.3058 124.983 78.646 120.003 70.7463C113.783 75.5678 108.315 68.2021 112.237 65.0991C112.237 65.0991 113.381 64.3513 113.468 64.2833C103.3 59.9408 113.396 50.937 117.525 57.3636M117.565 57.1193C117.552 57.2022 117.538 57.2836 117.525 57.3636M117.565 57.1193L117.525 57.3636M347.725 96.0007C347.725 96.0007 347.732 96.0017 347.746 96.0044M16.3651 132.771C54.9413 128 93.3344 121.303 131.934 116.677C209.468 107.385 262.07 101.498 339.874 96.2957C398.111 92.4015 456.383 89.1597 514.641 85.6756M478.176 119.085C471.847 115.467 461.773 122.023 456.91 130.9C452.048 139.776 457.888 147.659 462.593 149.574C466.266 151.07 475.908 152.016 480.425 143.406C484.861 134.951 485.233 121.958 478.176 119.085ZM475.228 138.475C473.513 140.251 462.119 134.699 463.088 132.153C464.057 129.608 465.642 126.812 466.984 124.651C468.325 122.49 480.174 128.215 479.124 130.973C478.074 133.731 476.943 136.7 475.228 138.475ZM466.952 143.294C466.558 144.33 465.425 144.86 464.423 144.479C463.421 144.097 462.928 142.948 463.322 141.912C463.717 140.876 464.849 140.345 465.852 140.727C466.854 141.108 467.347 142.258 466.952 143.294ZM471.737 146.053C472.74 146.435 473.872 145.905 474.266 144.868C474.661 143.832 474.168 142.683 473.166 142.301C472.163 141.92 471.031 142.45 470.636 143.486C470.242 144.522 470.735 145.672 471.737 146.053ZM462.296 138.566C461.902 139.602 460.77 140.132 459.767 139.751C458.765 139.369 458.272 138.22 458.666 137.184C459.061 136.148 460.193 135.617 461.196 135.999C462.198 136.38 462.691 137.53 462.296 138.566ZM284.464 119.962L283.109 111.255L274.177 112.645L269.947 85.462L278.879 84.072L277.509 75.2688L305.19 70.9612L306.56 79.7644L315.591 78.3591L319.671 104.575L328.603 103.185L330.109 112.859L320.194 114.402L318.84 105.695L310.79 106.948L312.145 115.654L284.464 119.962ZM283.941 110.135L309.658 106.133L305.714 80.7878L279.996 84.7899L283.941 110.135ZM56.9926 150.021L68.9179 147.301C70.3815 146.968 71.2975 145.511 70.9637 144.047L54.346 71.1699C54.0123 69.7063 52.5552 68.7903 51.0916 69.1241L39.1663 71.8434C37.7027 72.1771 36.7867 73.6341 37.1205 75.0977L53.7382 147.975C54.0719 149.439 55.529 150.354 56.9926 150.021ZM102.966 139.369L114.892 136.649C116.355 136.316 117.271 134.859 116.937 133.395L100.32 60.5178C99.9859 59.0542 98.5289 58.1383 97.0653 58.472L85.1399 61.1913C83.6763 61.525 82.7604 62.982 83.0941 64.4456L99.7119 137.323C100.046 138.786 101.503 139.702 102.966 139.369ZM101.1 104.946L98.3808 93.0204C98.0471 91.5568 96.5901 90.6409 95.1265 90.9746L65.9756 97.6217C64.512 97.9555 63.596 99.4125 63.9298 100.876L66.6491 112.801C66.9828 114.265 68.4398 115.181 69.9034 114.847L99.0543 108.2C100.518 107.866 101.434 106.409 101.1 104.946ZM435.513 132.547L448.792 134.214C450.422 134.419 451.889 133.421 452.069 131.987L461.038 60.5438C461.218 59.109 460.042 57.78 458.413 57.5755L445.133 55.9085C443.504 55.704 442.037 56.7012 441.856 58.136L432.888 129.579C432.708 131.014 433.883 132.343 435.513 132.547ZM478.018 76.5564L479.685 63.2772C479.89 61.6474 479.172 60.2153 478.082 60.0785L423.817 53.2667C422.727 53.1299 421.678 54.3401 421.473 55.9699L419.806 69.2491C419.602 70.8789 420.319 72.311 421.409 72.4478L475.675 79.2596C476.764 79.3964 477.814 78.1862 478.018 76.5564ZM429.324 41.5658C431.655 40.6802 439.308 51.4978 442.844 57.0173L431.625 62.0655L423.817 57.1952L422.607 53.8784C424.361 49.1614 427.319 42.3278 429.324 41.5658ZM479.025 64.1628C479.14 59.4781 478.901 49.6991 477.023 48.0597C475.145 46.4203 464.212 53.9088 458.981 57.858L467.751 66.4865L479.025 64.1628ZM243.525 95.819L234.922 104.996C233.866 106.122 233.346 107.35 233.76 107.738L254.399 127.089C254.813 127.478 256.005 126.88 257.061 125.753L265.665 116.577C266.721 115.45 267.241 114.222 266.826 113.834L246.188 94.4834C245.773 94.0948 244.581 94.6927 243.525 95.819ZM164.525 128.246C164.464 129.794 163.628 130.537 162.015 130.474L157.502 130.299C156.292 130.252 155.572 130.004 155.341 129.557C155.111 129.08 154.987 128.665 154.97 128.313C154.953 127.933 154.909 127.477 154.836 126.948C154.706 125.509 154.502 123.951 154.226 122.273C151.644 126.356 147.737 128.969 142.505 130.111C140.657 130.507 138.632 130.662 136.43 130.577C134.227 130.491 132.039 130.055 129.864 129.268C127.688 128.511 125.773 127.427 124.119 126.017C120.391 122.83 118.623 118.768 118.815 113.831C119.025 108.427 121.295 104.376 125.624 101.677C129.188 99.5045 133.699 98.5243 139.158 98.7365C144.617 98.9487 149.18 100.633 152.848 103.788C152.979 102.799 153.074 101.559 153.132 100.07C153.19 98.5798 152.938 97.078 152.375 95.5641C151.813 94.0502 150.977 92.7744 149.868 91.7366C147.587 89.6879 144.337 88.5815 140.119 88.4175C136.334 88.2705 132.45 89.0995 128.466 90.9047C127.707 91.2556 127.048 91.4201 126.49 91.3984C125.652 91.3658 124.876 90.5604 124.161 88.9821C123.385 87.3722 123.01 86.2167 123.037 85.5156C123.087 84.2303 124.159 83.0287 126.253 81.9106C130.25 79.784 135.52 78.848 142.065 79.1024C148.02 79.3338 152.892 81.0591 156.681 84.2781C161.16 88.1384 163.269 93.4277 163.007 100.146C162.892 103.126 162.234 106.859 161.034 111.347C163.396 118.519 164.559 124.152 164.525 128.246ZM134.074 108.456C132.768 109.283 131.819 110.124 131.227 110.979C130.666 111.834 130.362 112.861 130.315 114.059C130.27 115.227 130.446 116.287 130.844 117.239C131.274 118.162 131.88 118.947 132.663 119.591C134.32 120.914 136.203 121.616 138.312 121.698C140.453 121.781 142.214 121.616 143.597 121.201C144.98 120.787 146.182 120.234 147.203 119.542C149.404 118.048 150.539 116.425 150.607 114.672C150.506 112.474 149.286 110.7 146.947 109.352C144.852 108.1 142.347 107.417 139.431 107.304C137.167 107.216 135.381 107.6 134.074 108.456ZM191.891 104.574C188.531 104.921 185.335 104.777 182.302 104.143C179.3 103.535 176.589 102.436 174.171 100.849C171.781 99.258 169.813 97.193 168.266 94.6537C166.745 92.0831 165.8 89.0079 165.43 85.4282C165.042 81.6781 165.289 78.2644 166.169 75.1872C167.047 72.0815 168.465 69.3794 170.425 67.0808C172.41 64.7509 174.885 62.8871 177.851 61.4895C180.842 60.0606 184.215 59.1521 187.97 58.7641C190.878 58.4636 193.392 58.4909 195.512 58.8462C197.631 59.2014 199.287 59.7625 200.479 60.5294C201.671 61.2963 202.314 62.1344 202.408 63.0435C202.467 63.6117 202.366 64.1533 202.105 64.6684C201.845 65.1835 201.475 65.6093 200.996 65.9459C200.514 66.2542 199.991 66.4374 199.427 66.4958C198.777 66.5629 198.058 66.508 197.269 66.3311C196.506 66.1228 195.517 65.9379 194.302 65.7763C193.087 65.6148 191.505 65.6346 189.557 65.836C187.298 66.0694 185.275 66.6517 183.488 67.5829C181.701 68.5141 180.201 69.7316 178.986 71.2353C177.772 72.7391 176.895 74.4664 176.355 76.4174C175.811 78.3399 175.656 80.4234 175.888 82.6678C176.199 85.6793 177.069 88.1593 178.497 90.1078C179.951 92.0249 181.791 93.3997 184.017 94.2321C186.271 95.0615 188.739 95.3377 191.421 95.0605C193.878 94.8067 195.942 94.3493 197.614 93.6884C199.283 92.999 200.662 92.2536 201.749 91.4521C202.864 90.6477 203.776 89.9505 204.486 89.3603C205.195 88.7701 205.804 88.4488 206.312 88.3963C207.244 88.3 207.986 88.4387 208.538 88.8123C209.087 89.1576 209.493 89.6325 209.755 90.2371C210.043 90.8104 210.216 91.3811 210.275 91.9493C210.401 93.1709 210.077 94.4535 209.303 95.7969C208.557 97.1374 207.405 98.4193 205.848 99.6426C204.288 100.838 202.326 101.873 199.963 102.749C197.631 103.65 194.94 104.259 191.891 104.574ZM213.087 121.115L225.248 122.426C226.741 122.587 228.081 121.508 228.242 120.015L236.256 45.6981C236.417 44.2056 235.338 42.8652 233.845 42.7043L221.684 41.3929C220.192 41.2319 218.851 42.3114 218.69 43.8039L210.676 118.121C210.515 119.613 211.595 120.954 213.087 121.115ZM216.811 91.2888L221.492 102.965C222.066 104.398 223.173 105.302 223.963 104.986L263.329 89.2045C264.119 88.8875 264.294 87.4689 263.72 86.036L259.039 74.3601C258.465 72.9271 257.358 72.0224 256.568 72.3393L217.202 88.1204C216.412 88.4373 216.236 89.8559 216.811 91.2888ZM345.394 139.424L358.389 136.222C359.984 135.829 360.985 134.328 360.626 132.869L342.727 60.2452C342.367 58.7866 340.783 57.9229 339.188 58.316L326.194 61.5186C324.599 61.9117 323.597 63.4127 323.957 64.8712L341.856 137.495C342.215 138.954 343.799 139.817 345.394 139.424ZM352.091 95.979L347.123 75.9265C349.591 75.0747 352.438 74.3175 355.525 74.0577C358.754 73.786 361.07 74.252 362.614 75.1693C363.895 75.93 365.678 77.5995 366.745 82.1698C367.736 86.4162 366.944 88.644 366.134 89.92C365.174 91.4316 363.358 92.8795 360.507 94.0404C357.824 95.1332 354.773 95.7393 352.091 95.979ZM383.356 78.293C381.44 70.083 377.314 64.0619 371.326 60.5044C365.601 57.1034 359.287 56.6235 354.094 57.0605C344.261 57.8882 334.022 62.7688 334.267 62.6839L326.9 65.2296L338.08 110.355L342.015 112.016C343.93 112.824 346.11 113.018 347.398 113.096C349.047 113.195 350.962 113.176 353.001 113.019C357.038 112.708 362.081 111.817 366.941 109.838C371.767 107.873 377.038 104.57 380.535 99.0611C384.181 93.3164 385.214 86.2535 383.356 78.293ZM416.454 112.088L417.021 104.301L396.695 102.823L396.128 110.609L416.454 112.088ZM387.641 133.496L388.207 125.709L381.438 125.217L383.138 101.837L389.907 102.329L390.474 94.543L424.356 97.007L423.79 104.793L430.559 105.286L429.425 120.879L395.561 118.417L394.994 126.203L422.089 128.173L421.523 135.96L387.641 133.496Z" stroke="#1D315B" stroke-width="30" stroke-linecap="round"/>
<g filter="url(#filter0_d_394_66)">
<path d="M130.283 25.5538C128.391 16.8367 142.69 16.1133 142.117 24.573C142.107 24.7101 142.199 24.8218 142.198 24.9501C145.719 20.4619 159.922 27.0561 150.254 34.3131C150.254 34.3131 148.731 35.3477 148.884 35.404C154.993 37.6496 151.516 53.0849 140.828 44.1619C135.474 54.4476 124.45 46.559 127.792 39.9815C127.792 39.9815 128.852 38.2928 128.927 38.1479C113.52 37.1265 121.57 18.7127 130.365 25.9309L130.283 25.5538Z" fill="#FF53A0"/>
<path d="M97.9817 42.6859C94.6719 40.6091 99.4629 35.0514 101.831 37.9644C101.869 38.0116 101.935 38.0131 101.974 38.0543C101.845 35.3104 108.824 32.1234 107.64 38.041C107.64 38.041 107.42 38.9384 107.491 38.8993C110.314 37.34 113.782 43.5606 107.327 44.6952C108.574 49.972 102.315 51.5619 101.489 48.2177C101.489 48.2177 101.348 47.2841 101.33 47.21C95.6211 52.6238 92.8511 43.749 98.1249 42.7757L97.9817 42.6859Z" fill="#FF53A0"/>
<path d="M144.015 63.7881C140.863 60.6417 147.937 55.3306 149.774 59.2259C149.803 59.289 149.878 59.3058 149.91 59.362C150.568 56.1717 159.434 54.0903 156.353 60.6375C156.353 60.6375 155.84 61.6212 155.932 61.5923C159.597 60.4391 161.714 68.3953 154.046 68.2318C153.916 74.5947 146.337 75.0004 146.38 70.9599C146.38 70.9599 146.493 69.8521 146.494 69.7627C138.419 74.6987 137.873 63.8439 144.152 63.9242L144.015 63.7881Z" fill="#FF53A0"/>
<path d="M166.395 44.0694C161.679 40.663 168.405 34.1245 171.796 38.4729C171.851 38.5434 171.945 38.5579 172 38.6203C171.785 34.9212 181.642 31.9711 180.032 39.6725C180.032 39.6725 179.732 40.8328 179.832 40.7938C183.815 39.2386 188.805 48.2245 179.667 48.525C181.497 55.8274 172.643 56.7748 171.433 52.1402C171.433 52.1402 171.222 50.8631 171.196 50.7605C163.165 56.9328 159.134 44.5242 166.599 44.2166L166.395 44.0694Z" fill="#FF53A0"/>
<path d="M117.565 57.1194C118.485 51.4745 128.343 54.5103 125.82 59.4044C125.779 59.4838 125.813 59.5725 125.78 59.6487C129.296 57.832 137.241 65.198 128.867 67.1718C128.867 67.1718 127.575 67.4182 127.665 67.4889C131.232 70.3058 124.982 78.6461 120.003 70.7464C113.783 75.5679 108.315 68.2021 112.237 65.0992C112.237 65.0992 113.38 64.3514 113.468 64.2834C103.3 59.9408 113.396 50.9371 117.525 57.3636L117.565 57.1194Z" fill="#FF53A0"/>
<path fill-rule="evenodd" clip-rule="evenodd" d="M456.91 130.9C461.772 122.023 471.847 115.467 478.176 119.085C485.233 121.958 484.86 134.952 480.425 143.406C475.908 152.016 466.266 151.07 462.593 149.574C457.888 147.659 452.047 139.777 456.91 130.9ZM463.088 132.153C462.119 134.699 473.513 140.251 475.228 138.475C476.943 136.7 478.073 133.731 479.123 130.973C480.173 128.215 468.325 122.49 466.983 124.651C465.642 126.812 464.057 129.608 463.088 132.153ZM464.423 144.479C465.425 144.86 466.557 144.33 466.952 143.294C467.346 142.258 466.854 141.108 465.851 140.727C464.849 140.345 463.716 140.876 463.322 141.912C462.927 142.948 463.42 144.097 464.423 144.479ZM474.266 144.869C473.872 145.905 472.739 146.435 471.737 146.053C470.734 145.672 470.242 144.523 470.636 143.486C471.03 142.45 472.163 141.92 473.165 142.302C474.168 142.683 474.661 143.832 474.266 144.869ZM459.767 139.751C460.769 140.132 461.902 139.602 462.296 138.566C462.691 137.53 462.198 136.38 461.195 135.999C460.193 135.617 459.06 136.148 458.666 137.184C458.272 138.22 458.764 139.369 459.767 139.751Z" fill="#FF53A0"/>
<path d="M284.464 119.962L283.109 111.255L274.177 112.645L269.946 85.4621L278.879 84.072L277.509 75.2689L305.19 70.9613L306.56 79.7644L315.591 78.3591L319.67 104.575L328.603 103.185L330.108 112.859L320.194 114.402L318.839 105.695L310.79 106.948L312.145 115.654L284.464 119.962ZM283.94 110.135L309.658 106.133L305.714 80.7878L279.996 84.7899L283.94 110.135Z" fill="#FF53A0"/>
<path d="M37.1202 75.0978C36.7864 73.6342 37.7024 72.1771 39.166 71.8434L51.0913 69.1241C52.5549 68.7904 54.012 69.7063 54.3457 71.1699L70.9634 144.047C71.2972 145.511 70.3812 146.968 68.9176 147.302L56.9923 150.021C55.5287 150.355 54.0717 149.439 53.7379 147.975L37.1202 75.0978Z" fill="#FF53A0"/>
<path d="M83.0938 64.4457C82.7601 62.9821 83.676 61.5251 85.1396 61.1913L97.065 58.4721C98.5286 58.1383 99.9856 59.0543 100.319 60.5179L116.937 133.395C117.271 134.859 116.355 136.316 114.891 136.649L102.966 139.369C101.502 139.702 100.045 138.787 99.7116 137.323L83.0938 64.4457Z" fill="#FF53A0"/>
<path d="M69.9031 114.847C68.4395 115.181 66.9825 114.265 66.6488 112.802L63.9295 100.876C63.5958 99.4125 64.5117 97.9555 65.9753 97.6218L95.1262 90.9747C96.5898 90.641 98.0468 91.5569 98.3805 93.0205L101.1 104.946C101.434 106.409 100.518 107.866 99.054 108.2L69.9031 114.847Z" fill="#FF53A0"/>
<path d="M441.856 58.1361C442.036 56.7013 443.503 55.704 445.133 55.9086L458.412 57.5755C460.042 57.7801 461.217 59.1091 461.037 60.5439L452.069 131.987C451.889 133.421 450.422 134.419 448.792 134.214L435.513 132.547C433.883 132.343 432.708 131.014 432.888 129.579L441.856 58.1361Z" fill="#FF53A0"/>
<path d="M421.409 72.4478C420.319 72.311 419.601 70.8789 419.806 69.2492L421.473 55.97C421.677 54.3402 422.727 53.1299 423.817 53.2667L478.082 60.0786C479.172 60.2154 479.89 61.6475 479.685 63.2772L478.018 76.5564C477.813 78.1862 476.764 79.3965 475.674 79.2597L421.409 72.4478Z" fill="#FF53A0"/>
<path d="M429.324 41.5659C426.994 42.4515 423.375 51.5396 421.857 55.973L431.624 62.0655L442.844 57.0174C439.308 51.4979 431.654 40.6803 429.324 41.5659Z" fill="#FF53A0"/>
<path d="M477.023 48.0598C478.901 49.6991 479.14 59.4782 479.025 64.1628L467.75 66.4865L458.981 57.858C464.212 53.9089 475.145 46.4204 477.023 48.0598Z" fill="#FF53A0"/>
<path d="M266.826 113.834C267.241 114.222 266.721 115.451 265.665 116.577L257.061 125.753C256.005 126.88 254.813 127.478 254.398 127.089L233.76 107.739C233.345 107.35 233.865 106.122 234.921 104.996L243.525 95.8191C244.581 94.6928 245.773 94.0948 246.188 94.4835L266.826 113.834Z" fill="#FF53A0"/>
<path d="M164.524 128.246C164.464 129.794 163.628 130.537 162.015 130.474L157.502 130.299C156.292 130.252 155.572 130.004 155.34 129.557C155.11 129.08 154.987 128.665 154.969 128.314C154.953 127.933 154.909 127.477 154.836 126.948C154.706 125.509 154.502 123.951 154.226 122.273C151.644 126.356 147.737 128.969 142.505 130.111C140.657 130.507 138.632 130.663 136.429 130.577C134.227 130.491 132.038 130.055 129.863 129.269C127.687 128.511 125.772 127.427 124.119 126.017C120.391 122.83 118.623 118.768 118.814 113.831C119.024 108.427 121.294 104.376 125.624 101.677C129.188 99.5046 133.699 98.5243 139.158 98.7365C144.617 98.9487 149.18 100.633 152.847 103.789C152.979 102.799 153.074 101.559 153.132 100.07C153.19 98.5798 152.937 97.078 152.375 95.5641C151.812 94.0503 150.977 92.7745 149.868 91.7367C147.586 89.6879 144.337 88.5816 140.118 88.4176C136.334 88.2705 132.45 89.0996 128.466 90.9048C127.706 91.2556 127.048 91.4202 126.489 91.3985C125.652 91.3659 124.876 90.5605 124.16 88.9822C123.384 87.3722 123.01 86.2167 123.037 85.5157C123.087 84.2304 124.159 83.0287 126.252 81.9106C130.249 79.7841 135.52 78.848 142.065 79.1024C148.02 79.3339 152.892 81.0592 156.681 84.2782C161.16 88.1384 163.268 93.4278 163.007 100.146C162.891 103.126 162.234 106.859 161.034 111.347C163.396 118.519 164.559 124.152 164.524 128.246ZM134.074 108.456C132.768 109.283 131.819 110.124 131.227 110.979C130.665 111.834 130.361 112.861 130.315 114.059C130.269 115.227 130.446 116.287 130.844 117.239C131.274 118.163 131.88 118.947 132.663 119.592C134.32 120.914 136.203 121.616 138.312 121.698C140.452 121.781 142.214 121.616 143.597 121.201C144.98 120.787 146.182 120.234 147.203 119.542C149.404 118.048 150.539 116.425 150.607 114.672C150.506 112.474 149.286 110.701 146.946 109.352C144.852 108.1 142.346 107.418 139.431 107.304C137.166 107.216 135.381 107.6 134.074 108.456Z" fill="#FF53A0"/>
<path d="M191.89 104.574C188.531 104.921 185.334 104.777 182.301 104.143C179.299 103.535 176.589 102.437 174.171 100.849C171.781 99.258 169.813 97.193 168.266 94.6538C166.745 92.0832 165.799 89.008 165.43 85.4283C165.042 81.6781 165.288 78.2644 166.169 75.1872C167.046 72.0816 168.465 69.3795 170.425 67.0809C172.409 64.7509 174.885 62.8872 177.851 61.4896C180.842 60.0606 184.215 59.1522 187.97 58.7641C190.878 58.4636 193.392 58.491 195.511 58.8462C197.631 59.2014 199.287 59.7625 200.479 60.5295C201.671 61.2964 202.314 62.1344 202.408 63.0436C202.467 63.6118 202.366 64.1534 202.105 64.6685C201.844 65.1835 201.475 65.6094 200.996 65.946C200.514 66.2542 199.991 66.4375 199.426 66.4958C198.777 66.5629 198.058 66.508 197.269 66.3311C196.506 66.1229 195.516 65.938 194.301 65.7764C193.086 65.6148 191.505 65.6347 189.557 65.836C187.298 66.0694 185.275 66.6517 183.488 67.583C181.701 68.5142 180.2 69.7317 178.986 71.2354C177.772 72.7391 176.895 74.4665 176.354 76.4174C175.811 78.3399 175.655 80.4234 175.887 82.6678C176.199 85.6793 177.068 88.1593 178.497 90.1078C179.95 92.025 181.79 93.3998 184.016 94.2321C186.271 95.0616 188.739 95.3377 191.421 95.0606C193.877 94.8067 195.941 94.3494 197.614 93.6884C199.283 92.9991 200.661 92.2536 201.748 91.4522C202.864 90.6478 203.776 89.9505 204.486 89.3604C205.195 88.7702 205.804 88.4489 206.312 88.3963C207.244 88.3001 207.986 88.4387 208.538 88.8124C209.087 89.1576 209.493 89.6325 209.755 90.2371C210.043 90.8104 210.216 91.3812 210.274 91.9494C210.401 93.171 210.077 94.4535 209.302 95.797C208.556 97.1375 207.405 98.4194 205.848 99.6427C204.288 100.838 202.326 101.873 199.962 102.749C197.63 103.65 194.94 104.259 191.89 104.574Z" fill="#FF53A0"/>
<path d="M218.69 43.8039C218.851 42.3114 220.191 41.232 221.684 41.3929L233.845 42.7043C235.337 42.8653 236.417 44.2057 236.256 45.6982L228.242 120.015C228.081 121.508 226.74 122.587 225.248 122.426L213.087 121.115C211.594 120.954 210.515 119.613 210.676 118.121L218.69 43.8039Z" fill="#FF53A0"/>
<path d="M256.567 72.3393C257.358 72.0224 258.464 72.9272 259.039 74.3601L263.72 86.036C264.294 87.469 264.119 88.8876 263.328 89.2045L223.963 104.986C223.172 105.302 222.066 104.398 221.491 102.965L216.81 91.2889C216.236 89.8559 216.411 88.4373 217.202 88.1204L256.567 72.3393Z" fill="#FF53A0"/>
<path d="M323.956 64.8713C323.597 63.4127 324.598 61.9117 326.193 61.5187L339.188 58.316C340.783 57.923 342.367 58.7867 342.726 60.2452L360.625 132.869C360.985 134.328 359.983 135.829 358.388 136.222L345.394 139.424C343.799 139.818 342.215 138.954 341.855 137.495L323.956 64.8713Z" fill="#FF53A0"/>
<path fill-rule="evenodd" clip-rule="evenodd" d="M347.123 75.9265L352.091 95.979C354.773 95.7393 357.824 95.1333 360.507 94.0405C363.358 92.8796 365.174 91.4316 366.134 89.92C366.943 88.6441 367.736 86.4163 366.745 82.1699C365.678 77.5996 363.894 75.9301 362.614 75.1694C361.069 74.252 358.754 73.786 355.524 74.0578C352.438 74.3176 349.591 75.0748 347.123 75.9265ZM371.325 60.5044C377.314 64.0619 381.44 70.083 383.356 78.2931C385.214 86.2536 384.181 93.3165 380.535 99.0611C377.038 104.57 371.767 107.873 366.941 109.838C362.081 111.817 357.038 112.709 353.001 113.019C350.961 113.176 349.047 113.195 347.397 113.096C346.109 113.018 343.929 112.824 342.015 112.016L338.079 110.355L326.9 65.2297L334.267 62.6839C334.022 62.7688 344.26 57.8882 354.094 57.0606C359.287 56.6235 365.6 57.1035 371.325 60.5044Z" fill="#FF53A0"/>
<path d="M416.454 112.088L417.02 104.301L396.694 102.823L396.128 110.609L416.454 112.088ZM387.64 133.496L388.207 125.709L381.437 125.217L383.138 101.837L389.907 102.329L390.473 94.543L424.356 97.0071L423.789 104.793L430.559 105.286L429.425 120.879L395.56 118.417L394.994 126.203L422.089 128.174L421.523 135.96L387.64 133.496Z" fill="#FF53A0"/>
<path d="M130.283 25.5538C128.391 16.8367 142.69 16.1133 142.117 24.573C142.107 24.7101 142.199 24.8218 142.198 24.9501C145.719 20.4619 159.922 27.0561 150.254 34.3131C150.254 34.3131 148.731 35.3477 148.884 35.404C154.993 37.6496 151.516 53.0849 140.828 44.1619C135.474 54.4476 124.45 46.559 127.792 39.9815C127.792 39.9815 128.852 38.2928 128.927 38.1479C113.52 37.1265 121.57 18.7127 130.365 25.9309L130.283 25.5538Z" fill="#FF53A0"/>
<path d="M97.9817 42.6859C94.6719 40.6091 99.4629 35.0514 101.831 37.9644C101.869 38.0116 101.935 38.0131 101.974 38.0543C101.845 35.3104 108.824 32.1234 107.64 38.041C107.64 38.041 107.42 38.9384 107.491 38.8993C110.314 37.34 113.782 43.5606 107.327 44.6952C108.574 49.972 102.315 51.5619 101.489 48.2177C101.489 48.2177 101.348 47.2841 101.33 47.21C95.6211 52.6238 92.8511 43.749 98.1249 42.7757L97.9817 42.6859Z" fill="#FF53A0"/>
<path d="M144.015 63.7881C140.863 60.6417 147.937 55.3306 149.774 59.2259C149.803 59.289 149.878 59.3058 149.91 59.362C150.568 56.1717 159.434 54.0903 156.353 60.6375C156.353 60.6375 155.84 61.6212 155.932 61.5923C159.597 60.4391 161.714 68.3953 154.046 68.2318C153.916 74.5947 146.337 75.0004 146.38 70.9599C146.38 70.9599 146.493 69.8521 146.494 69.7627C138.419 74.6987 137.873 63.8439 144.152 63.9242L144.015 63.7881Z" fill="#FF53A0"/>
<path d="M166.395 44.0694C161.679 40.663 168.405 34.1245 171.796 38.4729C171.851 38.5434 171.945 38.5579 172 38.6203C171.785 34.9212 181.642 31.9711 180.032 39.6725C180.032 39.6725 179.732 40.8328 179.832 40.7938C183.815 39.2386 188.805 48.2245 179.667 48.525C181.497 55.8274 172.643 56.7748 171.433 52.1402C171.433 52.1402 171.222 50.8631 171.196 50.7605C163.165 56.9328 159.134 44.5242 166.599 44.2166L166.395 44.0694Z" fill="#FF53A0"/>
<path d="M117.565 57.1194C118.485 51.4745 128.343 54.5103 125.82 59.4044C125.779 59.4838 125.813 59.5725 125.78 59.6487C129.296 57.832 137.241 65.198 128.867 67.1718C128.867 67.1718 127.575 67.4182 127.665 67.4889C131.232 70.3058 124.982 78.6461 120.003 70.7464C113.783 75.5679 108.315 68.2021 112.237 65.0992C112.237 65.0992 113.38 64.3514 113.468 64.2834C103.3 59.9408 113.396 50.9371 117.525 57.3636L117.565 57.1194Z" fill="#FF53A0"/>
<path fill-rule="evenodd" clip-rule="evenodd" d="M456.91 130.9C461.772 122.023 471.847 115.467 478.176 119.085C485.233 121.958 484.86 134.952 480.425 143.406C475.908 152.016 466.266 151.07 462.593 149.574C457.888 147.659 452.047 139.777 456.91 130.9ZM463.088 132.153C462.119 134.699 473.513 140.251 475.228 138.475C476.943 136.7 478.073 133.731 479.123 130.973C480.173 128.215 468.325 122.49 466.983 124.651C465.642 126.812 464.057 129.608 463.088 132.153ZM464.423 144.479C465.425 144.86 466.557 144.33 466.952 143.294C467.346 142.258 466.854 141.108 465.851 140.727C464.849 140.345 463.716 140.876 463.322 141.912C462.927 142.948 463.42 144.097 464.423 144.479ZM474.266 144.869C473.872 145.905 472.739 146.435 471.737 146.053C470.734 145.672 470.242 144.523 470.636 143.486C471.03 142.45 472.163 141.92 473.165 142.302C474.168 142.683 474.661 143.832 474.266 144.869ZM459.767 139.751C460.769 140.132 461.902 139.602 462.296 138.566C462.691 137.53 462.198 136.38 461.195 135.999C460.193 135.617 459.06 136.148 458.666 137.184C458.272 138.22 458.764 139.369 459.767 139.751Z" fill="#FF53A0"/>
</g>
<path d="M16.365 132.771C54.9412 128 93.3343 121.302 131.933 116.677C209.468 107.385 262.07 101.498 339.874 96.2956C398.111 92.4014 456.383 89.1596 514.641 85.6755" stroke="#23D7FF" stroke-width="8" stroke-linecap="round"/>
<mask id="mask0_394_66" style="mask-type:alpha" maskUnits="userSpaceOnUse" x="37" y="18" width="447" height="133">
<path d="M130.283 25.5538C128.391 16.8367 142.69 16.1133 142.117 24.573C142.107 24.7101 142.199 24.8218 142.198 24.9501C145.719 20.4619 159.922 27.0561 150.254 34.3131C150.254 34.3131 148.731 35.3477 148.884 35.404C154.993 37.6496 151.516 53.0849 140.828 44.1619C135.474 54.4476 124.45 46.559 127.792 39.9815C127.792 39.9815 128.852 38.2928 128.927 38.1479C113.52 37.1265 121.57 18.7127 130.365 25.9309L130.283 25.5538Z" fill="#FF53A0"/>
<path d="M97.9817 42.6859C94.6719 40.6091 99.4629 35.0514 101.831 37.9644C101.869 38.0116 101.935 38.0131 101.974 38.0543C101.845 35.3104 108.824 32.1234 107.64 38.041C107.64 38.041 107.42 38.9384 107.491 38.8993C110.314 37.34 113.782 43.5606 107.327 44.6952C108.574 49.972 102.315 51.5619 101.489 48.2177C101.489 48.2177 101.348 47.2841 101.33 47.21C95.6211 52.6238 92.8511 43.749 98.1249 42.7757L97.9817 42.6859Z" fill="#FF53A0"/>
<path d="M144.015 63.7881C140.863 60.6417 147.937 55.3306 149.774 59.2259C149.803 59.289 149.878 59.3058 149.91 59.362C150.568 56.1717 159.434 54.0903 156.353 60.6375C156.353 60.6375 155.84 61.6212 155.932 61.5923C159.597 60.4391 161.714 68.3953 154.046 68.2318C153.916 74.5947 146.337 75.0004 146.38 70.9599C146.38 70.9599 146.493 69.8521 146.494 69.7627C138.419 74.6987 137.873 63.8439 144.152 63.9242L144.015 63.7881Z" fill="#FF53A0"/>
<path d="M166.395 44.0694C161.679 40.663 168.405 34.1245 171.796 38.4729C171.851 38.5434 171.945 38.5579 172 38.6203C171.785 34.9212 181.642 31.9711 180.032 39.6725C180.032 39.6725 179.732 40.8328 179.832 40.7938C183.815 39.2386 188.805 48.2245 179.667 48.525C181.497 55.8274 172.643 56.7748 171.433 52.1402C171.433 52.1402 171.222 50.8631 171.196 50.7605C163.165 56.9328 159.134 44.5242 166.599 44.2166L166.395 44.0694Z" fill="#FF53A0"/>
<path d="M117.565 57.1194C118.485 51.4745 128.343 54.5103 125.82 59.4044C125.779 59.4838 125.813 59.5725 125.78 59.6487C129.296 57.832 137.241 65.198 128.867 67.1718C128.867 67.1718 127.575 67.4182 127.665 67.4889C131.232 70.3058 124.982 78.6461 120.003 70.7464C113.783 75.5679 108.315 68.2021 112.237 65.0992C112.237 65.0992 113.38 64.3514 113.468 64.2834C103.3 59.9408 113.396 50.9371 117.525 57.3636L117.565 57.1194Z" fill="#FF53A0"/>
<path fill-rule="evenodd" clip-rule="evenodd" d="M456.91 130.9C461.772 122.023 471.847 115.467 478.176 119.085C485.233 121.958 484.86 134.952 480.425 143.406C475.908 152.016 466.266 151.07 462.593 149.574C457.888 147.659 452.047 139.777 456.91 130.9ZM463.088 132.153C462.119 134.699 473.513 140.251 475.228 138.475C476.943 136.7 478.073 133.731 479.123 130.973C480.173 128.215 468.325 122.49 466.983 124.651C465.642 126.812 464.057 129.608 463.088 132.153ZM464.423 144.479C465.425 144.86 466.557 144.33 466.952 143.294C467.346 142.258 466.854 141.108 465.851 140.727C464.849 140.345 463.716 140.876 463.322 141.912C462.927 142.948 463.42 144.097 464.423 144.479ZM474.266 144.869C473.872 145.905 472.739 146.435 471.737 146.053C470.734 145.672 470.242 144.523 470.636 143.486C471.03 142.45 472.163 141.92 473.165 142.302C474.168 142.683 474.661 143.832 474.266 144.869ZM459.767 139.751C460.769 140.132 461.902 139.602 462.296 138.566C462.691 137.53 462.198 136.38 461.195 135.999C460.193 135.617 459.06 136.148 458.666 137.184C458.272 138.22 458.764 139.369 459.767 139.751Z" fill="#FF53A0"/>
<path d="M284.464 119.962L283.109 111.255L274.177 112.645L269.946 85.4621L278.879 84.072L277.509 75.2689L305.19 70.9613L306.56 79.7644L315.591 78.3591L319.67 104.575L328.603 103.185L330.108 112.859L320.194 114.402L318.839 105.695L310.79 106.948L312.145 115.654L284.464 119.962ZM283.94 110.135L309.658 106.133L305.714 80.7878L279.996 84.7899L283.94 110.135Z" fill="#FF53A0"/>
<path d="M37.1202 75.0978C36.7864 73.6342 37.7024 72.1771 39.166 71.8434L51.0913 69.1241C52.5549 68.7904 54.012 69.7063 54.3457 71.1699L70.9634 144.047C71.2972 145.511 70.3812 146.968 68.9176 147.302L56.9923 150.021C55.5287 150.355 54.0717 149.439 53.7379 147.975L37.1202 75.0978Z" fill="#FF53A0"/>
<path d="M83.0938 64.4457C82.7601 62.9821 83.676 61.5251 85.1396 61.1913L97.065 58.4721C98.5286 58.1383 99.9856 59.0543 100.319 60.5179L116.937 133.395C117.271 134.859 116.355 136.316 114.891 136.649L102.966 139.369C101.502 139.702 100.045 138.787 99.7116 137.323L83.0938 64.4457Z" fill="#FF53A0"/>
<path d="M69.9031 114.847C68.4395 115.181 66.9825 114.265 66.6488 112.801L63.9295 100.876C63.5958 99.4125 64.5117 97.9555 65.9753 97.6218L95.1262 90.9747C96.5898 90.641 98.0468 91.5569 98.3805 93.0205L101.1 104.946C101.434 106.409 100.518 107.866 99.054 108.2L69.9031 114.847Z" fill="#FF53A0"/>
<path d="M441.856 58.1361C442.036 56.7013 443.503 55.704 445.133 55.9086L458.412 57.5755C460.042 57.7801 461.217 59.1091 461.037 60.5439L452.069 131.987C451.889 133.421 450.422 134.419 448.792 134.214L435.513 132.547C433.883 132.343 432.708 131.014 432.888 129.579L441.856 58.1361Z" fill="#FF53A0"/>
<path d="M421.409 72.4478C420.319 72.311 419.601 70.8789 419.806 69.2492L421.473 55.97C421.677 54.3402 422.727 53.1299 423.817 53.2667L478.082 60.0786C479.172 60.2154 479.89 61.6475 479.685 63.2772L478.018 76.5564C477.813 78.1862 476.764 79.3965 475.674 79.2597L421.409 72.4478Z" fill="#FF53A0"/>
<path d="M429.324 41.5659C426.994 42.4515 423.375 51.5396 421.857 55.973L431.624 62.0655L442.844 57.0174C439.308 51.4979 431.654 40.6803 429.324 41.5659Z" fill="#FF53A0"/>
<path d="M477.023 48.0598C478.901 49.6991 479.14 59.4782 479.025 64.1628L467.75 66.4865L458.981 57.858C464.212 53.9089 475.145 46.4204 477.023 48.0598Z" fill="#FF53A0"/>
<path d="M266.826 113.834C267.241 114.222 266.721 115.451 265.665 116.577L257.061 125.753C256.005 126.88 254.813 127.478 254.398 127.089L233.76 107.739C233.345 107.35 233.865 106.122 234.921 104.996L243.525 95.819C244.581 94.6928 245.773 94.0948 246.188 94.4835L266.826 113.834Z" fill="#FF53A0"/>
<path d="M164.524 128.246C164.464 129.794 163.628 130.537 162.015 130.474L157.502 130.299C156.292 130.252 155.572 130.004 155.34 129.557C155.11 129.08 154.987 128.665 154.969 128.314C154.953 127.933 154.909 127.477 154.836 126.948C154.706 125.509 154.502 123.951 154.226 122.273C151.644 126.356 147.737 128.969 142.505 130.111C140.657 130.507 138.632 130.663 136.429 130.577C134.227 130.491 132.038 130.055 129.863 129.269C127.687 128.511 125.772 127.427 124.119 126.017C120.391 122.83 118.623 118.768 118.814 113.831C119.024 108.427 121.294 104.376 125.624 101.677C129.188 99.5046 133.699 98.5243 139.158 98.7365C144.617 98.9487 149.18 100.633 152.847 103.789C152.979 102.799 153.074 101.559 153.132 100.07C153.19 98.5798 152.937 97.078 152.375 95.5641C151.812 94.0503 150.977 92.7745 149.868 91.7367C147.586 89.6879 144.337 88.5816 140.118 88.4176C136.334 88.2705 132.45 89.0996 128.466 90.9048C127.706 91.2556 127.048 91.4202 126.489 91.3985C125.652 91.3659 124.876 90.5605 124.16 88.9822C123.384 87.3722 123.01 86.2167 123.037 85.5157C123.087 84.2304 124.159 83.0287 126.252 81.9106C130.249 79.7841 135.52 78.848 142.065 79.1024C148.02 79.3339 152.892 81.0592 156.681 84.2782C161.16 88.1384 163.268 93.4278 163.007 100.146C162.891 103.126 162.234 106.859 161.034 111.347C163.396 118.519 164.559 124.152 164.524 128.246ZM134.074 108.456C132.768 109.283 131.819 110.124 131.227 110.979C130.665 111.834 130.361 112.861 130.315 114.059C130.269 115.227 130.446 116.287 130.844 117.239C131.274 118.163 131.88 118.947 132.663 119.592C134.32 120.914 136.203 121.616 138.312 121.698C140.452 121.781 142.214 121.616 143.597 121.201C144.98 120.787 146.182 120.234 147.203 119.542C149.404 118.048 150.539 116.425 150.607 114.672C150.506 112.474 149.286 110.701 146.946 109.352C144.852 108.1 142.346 107.418 139.431 107.304C137.166 107.216 135.381 107.6 134.074 108.456Z" fill="#FF53A0"/>
<path d="M191.89 104.574C188.531 104.921 185.334 104.777 182.301 104.143C179.299 103.535 176.589 102.436 174.171 100.849C171.781 99.258 169.813 97.193 168.266 94.6538C166.745 92.0832 165.799 89.008 165.43 85.4283C165.042 81.6781 165.288 78.2644 166.169 75.1872C167.046 72.0816 168.465 69.3795 170.425 67.0809C172.409 64.7509 174.885 62.8872 177.851 61.4896C180.842 60.0606 184.215 59.1522 187.97 58.7641C190.878 58.4636 193.392 58.491 195.511 58.8462C197.631 59.2014 199.287 59.7625 200.479 60.5295C201.671 61.2964 202.314 62.1344 202.408 63.0436C202.467 63.6118 202.366 64.1534 202.105 64.6685C201.844 65.1835 201.475 65.6094 200.996 65.946C200.514 66.2542 199.991 66.4375 199.426 66.4958C198.777 66.5629 198.058 66.508 197.269 66.3311C196.506 66.1229 195.516 65.938 194.301 65.7764C193.086 65.6148 191.505 65.6347 189.557 65.836C187.298 66.0694 185.275 66.6517 183.488 67.583C181.701 68.5142 180.2 69.7317 178.986 71.2354C177.772 72.7391 176.895 74.4665 176.354 76.4174C175.811 78.3399 175.655 80.4234 175.887 82.6678C176.199 85.6793 177.068 88.1593 178.497 90.1078C179.95 92.025 181.79 93.3998 184.016 94.2321C186.271 95.0616 188.739 95.3377 191.421 95.0606C193.877 94.8067 195.941 94.3494 197.614 93.6884C199.283 92.9991 200.661 92.2536 201.748 91.4522C202.864 90.6478 203.776 89.9505 204.486 89.3604C205.195 88.7702 205.804 88.4489 206.312 88.3963C207.244 88.3001 207.986 88.4387 208.538 88.8124C209.087 89.1576 209.493 89.6325 209.755 90.2371C210.043 90.8104 210.216 91.3812 210.274 91.9494C210.401 93.171 210.077 94.4535 209.302 95.797C208.556 97.1375 207.405 98.4194 205.848 99.6427C204.288 100.838 202.326 101.873 199.962 102.749C197.63 103.65 194.94 104.259 191.89 104.574Z" fill="#FF53A0"/>
<path d="M218.69 43.8039C218.851 42.3114 220.191 41.232 221.684 41.3929L233.845 42.7043C235.337 42.8653 236.417 44.2057 236.256 45.6982L228.242 120.015C228.081 121.508 226.74 122.587 225.248 122.426L213.087 121.115C211.594 120.954 210.515 119.613 210.676 118.121L218.69 43.8039Z" fill="#FF53A0"/>
<path d="M256.567 72.3394C257.358 72.0224 258.464 72.9272 259.039 74.3601L263.72 86.036C264.294 87.469 264.119 88.8876 263.328 89.2045L223.963 104.986C223.172 105.302 222.066 104.398 221.491 102.965L216.81 91.2889C216.236 89.8559 216.411 88.4373 217.202 88.1204L256.567 72.3394Z" fill="#FF53A0"/>
<path d="M323.956 64.8713C323.597 63.4127 324.598 61.9117 326.193 61.5187L339.188 58.316C340.783 57.923 342.367 58.7867 342.726 60.2452L360.625 132.869C360.985 134.328 359.983 135.829 358.388 136.222L345.394 139.424C343.799 139.818 342.215 138.954 341.855 137.495L323.956 64.8713Z" fill="#FF53A0"/>
<path fill-rule="evenodd" clip-rule="evenodd" d="M347.123 75.9265L352.091 95.979C354.773 95.7393 357.824 95.1333 360.507 94.0405C363.358 92.8796 365.174 91.4316 366.134 89.92C366.943 88.6441 367.736 86.4163 366.745 82.1699C365.678 77.5996 363.894 75.9301 362.614 75.1694C361.069 74.252 358.754 73.786 355.524 74.0578C352.438 74.3176 349.591 75.0748 347.123 75.9265ZM371.325 60.5044C377.314 64.062 381.44 70.083 383.356 78.2931C385.214 86.2536 384.181 93.3165 380.535 99.0611C377.038 104.57 371.767 107.873 366.941 109.838C362.081 111.817 357.038 112.709 353.001 113.019C350.961 113.176 349.047 113.195 347.397 113.096C346.109 113.018 343.929 112.824 342.015 112.016L338.079 110.355L326.9 65.2297L334.267 62.6839C334.022 62.7688 344.26 57.8882 354.094 57.0606C359.287 56.6235 365.6 57.1035 371.325 60.5044Z" fill="#FF53A0"/>
<path d="M416.454 112.088L417.02 104.301L396.694 102.823L396.128 110.609L416.454 112.088ZM387.64 133.496L388.207 125.709L381.437 125.217L383.138 101.837L389.907 102.329L390.473 94.543L424.356 97.0071L423.789 104.793L430.559 105.286L429.425 120.879L395.56 118.417L394.994 126.203L422.089 128.174L421.523 135.96L387.64 133.496Z" fill="#FF53A0"/>
<path d="M130.283 25.5538C128.391 16.8367 142.69 16.1133 142.117 24.573C142.107 24.7101 142.199 24.8218 142.198 24.9501C145.719 20.4619 159.922 27.0561 150.254 34.3131C150.254 34.3131 148.731 35.3477 148.884 35.404C154.993 37.6496 151.516 53.0849 140.828 44.1619C135.474 54.4476 124.45 46.559 127.792 39.9815C127.792 39.9815 128.852 38.2928 128.927 38.1479C113.52 37.1265 121.57 18.7127 130.365 25.9309L130.283 25.5538Z" fill="#FF53A0"/>
<path d="M97.9817 42.6859C94.6719 40.6091 99.4629 35.0514 101.831 37.9644C101.869 38.0116 101.935 38.0131 101.974 38.0543C101.845 35.3104 108.824 32.1234 107.64 38.041C107.64 38.041 107.42 38.9384 107.491 38.8993C110.314 37.34 113.782 43.5606 107.327 44.6952C108.574 49.972 102.315 51.5619 101.489 48.2177C101.489 48.2177 101.348 47.2841 101.33 47.21C95.6211 52.6238 92.8511 43.749 98.1249 42.7757L97.9817 42.6859Z" fill="#FF53A0"/>
<path d="M144.015 63.7881C140.863 60.6417 147.937 55.3306 149.774 59.2259C149.803 59.289 149.878 59.3058 149.91 59.362C150.568 56.1717 159.434 54.0903 156.353 60.6375C156.353 60.6375 155.84 61.6212 155.932 61.5923C159.597 60.4391 161.714 68.3953 154.046 68.2318C153.916 74.5947 146.337 75.0004 146.38 70.9599C146.38 70.9599 146.493 69.8521 146.494 69.7627C138.419 74.6987 137.873 63.8439 144.152 63.9242L144.015 63.7881Z" fill="#FF53A0"/>
<path d="M166.395 44.0694C161.679 40.663 168.405 34.1245 171.796 38.4729C171.851 38.5434 171.945 38.5579 172 38.6203C171.785 34.9212 181.642 31.9711 180.032 39.6725C180.032 39.6725 179.732 40.8328 179.832 40.7938C183.815 39.2386 188.805 48.2245 179.667 48.525C181.497 55.8274 172.643 56.7748 171.433 52.1402C171.433 52.1402 171.222 50.8631 171.196 50.7605C163.165 56.9328 159.134 44.5242 166.599 44.2166L166.395 44.0694Z" fill="#FF53A0"/>
<path d="M117.565 57.1194C118.485 51.4745 128.343 54.5103 125.82 59.4044C125.779 59.4838 125.813 59.5725 125.78 59.6487C129.296 57.832 137.241 65.198 128.867 67.1718C128.867 67.1718 127.575 67.4182 127.665 67.4889C131.232 70.3058 124.982 78.6461 120.003 70.7464C113.783 75.5679 108.315 68.2021 112.237 65.0992C112.237 65.0992 113.38 64.3514 113.468 64.2834C103.3 59.9408 113.396 50.9371 117.525 57.3636L117.565 57.1194Z" fill="#FF53A0"/>
<path fill-rule="evenodd" clip-rule="evenodd" d="M456.91 130.9C461.772 122.023 471.847 115.467 478.176 119.085C485.233 121.958 484.86 134.952 480.425 143.406C475.908 152.016 466.266 151.07 462.593 149.574C457.888 147.659 452.047 139.777 456.91 130.9ZM463.088 132.153C462.119 134.699 473.513 140.251 475.228 138.475C476.943 136.7 478.073 133.731 479.123 130.973C480.173 128.215 468.325 122.49 466.983 124.651C465.642 126.812 464.057 129.608 463.088 132.153ZM464.423 144.479C465.425 144.86 466.557 144.33 466.952 143.294C467.346 142.258 466.854 141.108 465.851 140.727C464.849 140.345 463.716 140.876 463.322 141.912C462.927 142.948 463.42 144.097 464.423 144.479ZM474.266 144.869C473.872 145.905 472.739 146.435 471.737 146.053C470.734 145.672 470.242 144.523 470.636 143.486C471.03 142.45 472.163 141.92 473.165 142.302C474.168 142.683 474.661 143.832 474.266 144.869ZM459.767 139.751C460.769 140.132 461.902 139.602 462.296 138.566C462.691 137.53 462.198 136.38 461.195 135.999C460.193 135.617 459.06 136.148 458.666 137.184C458.272 138.22 458.764 139.369 459.767 139.751Z" fill="#FF53A0"/>
</mask>
<g mask="url(#mask0_394_66)">
<path d="M33.6836 7.50928L476.696 -14.5078L485.556 163.765L42.5435 185.782L33.6836 7.50928Z" fill="url(#paint0_linear_394_66)"/>
<path d="M11.0278 133.037C49.604 128.266 104.763 119.583 143.362 114.958" stroke="#23D7FF" stroke-width="8" stroke-linecap="round"/>
<path d="M509.303 85.9404C480.564 87.6591 451.822 89.3189 423.082 91.027M235.951 104.669C254.94 102.789 274.06 101.076 294.55 99.4624" stroke="#23D7FF" stroke-width="8" stroke-linecap="round"/>
</g>
</g>
<defs>
<filter id="filter0_d_394_66" x="33.0508" y="18.6064" width="454.588" height="139.95" filterUnits="userSpaceOnUse" color-interpolation-filters="sRGB">
<feFlood flood-opacity="0" result="BackgroundImageFix"/>
<feColorMatrix in="SourceAlpha" type="matrix" values="0 0 0 0 0 0 0 0 0 0 0 0 0 0 0 0 0 0 127 0" result="hardAlpha"/>
<feOffset dy="4"/>
<feGaussianBlur stdDeviation="2"/>
<feComposite in2="hardAlpha" operator="out"/>
<feColorMatrix type="matrix" values="0 0 0 0 0 0 0 0 0 0 0 0 0 0 0 0 0 0 0.25 0"/>
<feBlend mode="normal" in2="BackgroundImageFix" result="effect1_dropShadow_394_66"/>
<feBlend mode="normal" in="SourceGraphic" in2="effect1_dropShadow_394_66" result="shape"/>
</filter>
<linearGradient id="paint0_linear_394_66" x1="33.6836" y1="7.50928" x2="498.611" y2="79.7758" gradientUnits="userSpaceOnUse">
<stop stop-color="#FFCAD2"/>
<stop offset="0.47" stop-color="#FF539E"/>
<stop offset="1" stop-color="#F56163"/>
</linearGradient>
<clipPath id="clip0_394_66">
<rect width="531" height="167" fill="white"/>
</clipPath>
</defs>
</svg>
