STARTFONT 2.1
COMMENT 
COMMENT This file has been produced by ttf2bdf written by Subhabrata Biswas
COMMENT 
COMMENT For comments, questions, bug reports, send a mail to
COMMENT                                           subhabrata.biswas@usa.net
COMMENT 
FONT -*-Delius-Medium-R-Normal--11-80-96-96-c-5--fontspecific
SIZE 8 96 96
FONTBOUNDINGBOX 14 14 -1 -3
STARTPROPERTIES 15
FOUNDRY "Misc"
FAMILY_NAME "Delius"
WEIGHT_NAME "Medium"
SLANT "R"
SETWIDTH_NAME "Normal"
PIXEL_SIZE 8
POINT_SIZE 80
RESOLUTION_X 96
RESOLUTION_Y 96
SPACING "C"
CHARSET_ENCODING "fontspecific"
FONT_ASCENT 11
FONT_DESCENT 3
DEFAULT_CHAR 31
COPYRIGHT "You may wish to put your copyright here"
ENDPROPERTIES
CHARS 226
STARTCHAR C0030
ENCODING 30
SWIDTH 1031 0
DWIDTH 11 0
BBX 1 1 0 -1
BITMAP
00
ENDCHAR
STARTCHAR C0031
ENCODING 31
SWIDTH 1031 0
DWIDTH 11 0
BBX 1 1 0 -1
BITMAP
00
ENDCHAR
STARTCHAR C0032- 
ENCODING 32
SWIDTH 281 0
DWIDTH 3 0
BBX 1 1 0 -1
BITMAP
00
ENDCHAR
STARTCHAR C0033-!
ENCODING 33
SWIDTH 281 0
DWIDTH 3 0
BBX 1 8 1 0
BITMAP
80
80
80
80
80
80
00
80
ENDCHAR
STARTCHAR C0034-"
ENCODING 34
SWIDTH 375 0
DWIDTH 4 0
BBX 2 3 1 5
BITMAP
C0
C0
C0
ENDCHAR
STARTCHAR C0035-#
ENCODING 35
SWIDTH 843 0
DWIDTH 9 0
BBX 7 8 1 0
BITMAP
24
24
F6
28
28
FE
48
48
ENDCHAR
STARTCHAR C0036-$
ENCODING 36
SWIDTH 562 0
DWIDTH 6 0
BBX 5 10 1 -1
BITMAP
20
70
A0
A0
40
30
28
28
F0
20
ENDCHAR
STARTCHAR C0037-%
ENCODING 37
SWIDTH 843 0
DWIDTH 9 0
BBX 7 8 1 0
BITMAP
C8
B8
A8
D0
14
1A
2A
2E
ENDCHAR
STARTCHAR C0038-&
ENCODING 38
SWIDTH 750 0
DWIDTH 8 0
BBX 7 8 1 0
BITMAP
F0
84
82
E2
BC
88
88
F0
ENDCHAR
STARTCHAR C0039-'
ENCODING 39
SWIDTH 187 0
DWIDTH 2 0
BBX 1 3 1 5
BITMAP
80
80
80
ENDCHAR
STARTCHAR C0040-(
ENCODING 40
SWIDTH 281 0
DWIDTH 3 0
BBX 3 11 0 -3
BITMAP
20
40
40
40
80
80
80
40
40
20
20
ENDCHAR
STARTCHAR C0041-)
ENCODING 41
SWIDTH 281 0
DWIDTH 3 0
BBX 3 11 0 -3
BITMAP
C0
40
40
20
20
20
20
20
40
40
80
ENDCHAR
STARTCHAR C0042-*
ENCODING 42
SWIDTH 468 0
DWIDTH 5 0
BBX 3 3 1 5
BITMAP
E0
40
E0
ENDCHAR
STARTCHAR C0043-+
ENCODING 43
SWIDTH 562 0
DWIDTH 6 0
BBX 4 5 1 0
BITMAP
40
40
F0
40
40
ENDCHAR
STARTCHAR C0044-,
ENCODING 44
SWIDTH 187 0
DWIDTH 2 0
BBX 2 3 0 -2
BITMAP
40
40
80
ENDCHAR
STARTCHAR C0045--
ENCODING 45
SWIDTH 468 0
DWIDTH 5 0
BBX 3 1 1 3
BITMAP
E0
ENDCHAR
STARTCHAR C0046-.
ENCODING 46
SWIDTH 187 0
DWIDTH 2 0
BBX 1 1 1 0
BITMAP
80
ENDCHAR
STARTCHAR C0047-/
ENCODING 47
SWIDTH 375 0
DWIDTH 4 0
BBX 2 10 1 -2
BITMAP
40
40
40
40
40
80
80
80
80
80
ENDCHAR
STARTCHAR C0048-0
ENCODING 48
SWIDTH 656 0
DWIDTH 7 0
BBX 6 8 1 0
BITMAP
70
88
88
84
84
88
88
70
ENDCHAR
STARTCHAR C0049-1
ENCODING 49
SWIDTH 375 0
DWIDTH 4 0
BBX 3 8 0 0
BITMAP
20
20
60
A0
20
20
20
20
ENDCHAR
STARTCHAR C0050-2
ENCODING 50
SWIDTH 562 0
DWIDTH 6 0
BBX 6 8 0 0
BITMAP
30
48
08
08
10
20
40
FC
ENDCHAR
STARTCHAR C0051-3
ENCODING 51
SWIDTH 562 0
DWIDTH 6 0
BBX 5 8 1 0
BITMAP
F0
10
20
E0
10
08
90
F0
ENDCHAR
STARTCHAR C0052-4
ENCODING 52
SWIDTH 562 0
DWIDTH 6 0
BBX 6 8 0 0
BITMAP
08
18
28
48
88
FC
08
08
ENDCHAR
STARTCHAR C0053-5
ENCODING 53
SWIDTH 562 0
DWIDTH 6 0
BBX 5 8 1 0
BITMAP
F0
80
80
F0
08
08
88
F0
ENDCHAR
STARTCHAR C0054-6
ENCODING 54
SWIDTH 562 0
DWIDTH 6 0
BBX 5 8 1 0
BITMAP
30
40
80
F0
88
88
88
70
ENDCHAR
STARTCHAR C0055-7
ENCODING 55
SWIDTH 468 0
DWIDTH 5 0
BBX 5 8 0 0
BITMAP
F8
08
10
10
10
20
20
40
ENDCHAR
STARTCHAR C0056-8
ENCODING 56
SWIDTH 562 0
DWIDTH 6 0
BBX 5 8 1 0
BITMAP
60
90
90
60
90
88
88
F0
ENDCHAR
STARTCHAR C0057-9
ENCODING 57
SWIDTH 562 0
DWIDTH 6 0
BBX 5 8 1 0
BITMAP
60
90
88
88
F8
10
10
E0
ENDCHAR
STARTCHAR C0058-:
ENCODING 58
SWIDTH 187 0
DWIDTH 2 0
BBX 1 6 1 0
BITMAP
80
80
00
00
00
80
ENDCHAR
STARTCHAR C0059-;
ENCODING 59
SWIDTH 281 0
DWIDTH 3 0
BBX 1 8 1 -2
BITMAP
80
80
00
00
00
80
80
80
ENDCHAR
STARTCHAR C0060-<
ENCODING 60
SWIDTH 562 0
DWIDTH 6 0
BBX 5 5 0 1
BITMAP
08
30
C0
60
18
ENDCHAR
STARTCHAR C0061-=
ENCODING 61
SWIDTH 656 0
DWIDTH 7 0
BBX 5 2 1 2
BITMAP
F8
F8
ENDCHAR
STARTCHAR C0062->
ENCODING 62
SWIDTH 562 0
DWIDTH 6 0
BBX 4 5 1 1
BITMAP
80
60
10
30
C0
ENDCHAR
STARTCHAR C0063-?
ENCODING 63
SWIDTH 468 0
DWIDTH 5 0
BBX 3 8 1 0
BITMAP
E0
20
20
40
40
40
00
40
ENDCHAR
STARTCHAR C0064-@
ENCODING 64
SWIDTH 1031 0
DWIDTH 11 0
BBX 10 11 1 -3
BITMAP
1E00
6100
C080
9E80
A240
A240
A680
9B80
8000
6600
1800
ENDCHAR
STARTCHAR C0065-A
ENCODING 65
SWIDTH 656 0
DWIDTH 7 0
BBX 7 8 0 0
BITMAP
10
28
28
28
FE
44
44
82
ENDCHAR
STARTCHAR C0066-B
ENCODING 66
SWIDTH 656 0
DWIDTH 7 0
BBX 6 8 1 0
BITMAP
F8
88
88
F0
88
84
84
F8
ENDCHAR
STARTCHAR C0067-C
ENCODING 67
SWIDTH 656 0
DWIDTH 7 0
BBX 6 8 1 0
BITMAP
7C
80
80
80
80
80
80
7C
ENDCHAR
STARTCHAR C0068-D
ENCODING 68
SWIDTH 750 0
DWIDTH 8 0
BBX 6 8 1 0
BITMAP
F8
88
84
84
84
84
88
F0
ENDCHAR
STARTCHAR C0069-E
ENCODING 69
SWIDTH 562 0
DWIDTH 6 0
BBX 6 8 0 0
BITMAP
7C
40
40
F8
40
40
40
7C
ENDCHAR
STARTCHAR C0070-F
ENCODING 70
SWIDTH 562 0
DWIDTH 6 0
BBX 6 8 0 0
BITMAP
7C
40
40
F8
40
40
40
40
ENDCHAR
STARTCHAR C0071-G
ENCODING 71
SWIDTH 750 0
DWIDTH 8 0
BBX 6 8 1 0
BITMAP
7C
80
80
80
BC
84
84
78
ENDCHAR
STARTCHAR C0072-H
ENCODING 72
SWIDTH 750 0
DWIDTH 8 0
BBX 7 8 0 0
BITMAP
42
42
42
FE
42
42
42
42
ENDCHAR
STARTCHAR C0073-I
ENCODING 73
SWIDTH 468 0
DWIDTH 5 0
BBX 4 8 0 0
BITMAP
F0
20
20
20
20
20
20
F0
ENDCHAR
STARTCHAR C0074-J
ENCODING 74
SWIDTH 562 0
DWIDTH 6 0
BBX 5 8 0 0
BITMAP
78
08
08
08
08
08
10
F0
ENDCHAR
STARTCHAR C0075-K
ENCODING 75
SWIDTH 656 0
DWIDTH 7 0
BBX 6 8 1 0
BITMAP
88
90
90
E0
A0
90
88
8C
ENDCHAR
STARTCHAR C0076-L
ENCODING 76
SWIDTH 562 0
DWIDTH 6 0
BBX 5 8 1 0
BITMAP
80
80
80
80
80
80
80
F8
ENDCHAR
STARTCHAR C0077-M
ENCODING 77
SWIDTH 843 0
DWIDTH 9 0
BBX 7 8 1 0
BITMAP
82
C6
C6
AA
AA
92
92
82
ENDCHAR
STARTCHAR C0078-N
ENCODING 78
SWIDTH 750 0
DWIDTH 8 0
BBX 6 8 1 0
BITMAP
84
C4
A4
A4
94
94
8C
8C
ENDCHAR
STARTCHAR C0079-O
ENCODING 79
SWIDTH 843 0
DWIDTH 9 0
BBX 7 8 1 0
BITMAP
7C
84
82
82
82
82
84
78
ENDCHAR
STARTCHAR C0080-P
ENCODING 80
SWIDTH 656 0
DWIDTH 7 0
BBX 5 8 1 0
BITMAP
F8
88
88
88
F0
80
80
80
ENDCHAR
STARTCHAR C0081-Q
ENCODING 81
SWIDTH 750 0
DWIDTH 8 0
BBX 7 10 1 -2
BITMAP
78
84
82
82
82
94
94
78
04
04
ENDCHAR
STARTCHAR C0082-R
ENCODING 82
SWIDTH 656 0
DWIDTH 7 0
BBX 6 8 1 0
BITMAP
F8
88
88
98
F0
90
88
8C
ENDCHAR
STARTCHAR C0083-S
ENCODING 83
SWIDTH 562 0
DWIDTH 6 0
BBX 6 8 0 0
BITMAP
78
40
40
30
08
04
84
78
ENDCHAR
STARTCHAR C0084-T
ENCODING 84
SWIDTH 562 0
DWIDTH 6 0
BBX 5 8 0 0
BITMAP
F8
20
20
20
20
20
20
20
ENDCHAR
STARTCHAR C0085-U
ENCODING 85
SWIDTH 750 0
DWIDTH 8 0
BBX 6 8 1 0
BITMAP
84
84
84
84
84
88
88
78
ENDCHAR
STARTCHAR C0086-V
ENCODING 86
SWIDTH 656 0
DWIDTH 7 0
BBX 7 8 0 0
BITMAP
82
44
44
44
28
28
28
10
ENDCHAR
STARTCHAR C0087-W
ENCODING 87
SWIDTH 937 0
DWIDTH 10 0
BBX 10 8 0 0
BITMAP
8040
4080
4480
4C80
2C80
3300
3300
1300
ENDCHAR
STARTCHAR C0088-X
ENCODING 88
SWIDTH 656 0
DWIDTH 7 0
BBX 7 8 0 0
BITMAP
C4
28
28
10
30
28
44
C6
ENDCHAR
STARTCHAR C0089-Y
ENCODING 89
SWIDTH 562 0
DWIDTH 6 0
BBX 6 8 0 0
BITMAP
84
48
48
30
10
10
10
10
ENDCHAR
STARTCHAR C0090-Z
ENCODING 90
SWIDTH 562 0
DWIDTH 6 0
BBX 6 8 0 0
BITMAP
7C
08
10
10
20
20
40
FC
ENDCHAR
STARTCHAR C0091-[
ENCODING 91
SWIDTH 375 0
DWIDTH 4 0
BBX 3 10 1 -2
BITMAP
E0
80
80
80
80
80
80
80
80
E0
ENDCHAR
STARTCHAR C0092-\
ENCODING 92
SWIDTH 375 0
DWIDTH 4 0
BBX 2 10 1 -2
BITMAP
80
80
80
80
80
40
40
40
40
40
ENDCHAR
STARTCHAR C0093-]
ENCODING 93
SWIDTH 375 0
DWIDTH 4 0
BBX 3 10 0 -2
BITMAP
E0
20
20
20
20
20
20
20
20
E0
ENDCHAR
STARTCHAR C0094-^
ENCODING 94
SWIDTH 562 0
DWIDTH 6 0
BBX 5 4 0 4
BITMAP
30
50
48
88
ENDCHAR
STARTCHAR C0095-_
ENCODING 95
SWIDTH 562 0
DWIDTH 6 0
BBX 5 1 1 -2
BITMAP
F8
ENDCHAR
STARTCHAR C0096-`
ENCODING 96
SWIDTH 281 0
DWIDTH 3 0
BBX 1 1 1 7
BITMAP
80
ENDCHAR
STARTCHAR C0097-a
ENCODING 97
SWIDTH 562 0
DWIDTH 6 0
BBX 5 6 1 0
BITMAP
70
90
90
90
90
E8
ENDCHAR
STARTCHAR C0098-b
ENCODING 98
SWIDTH 562 0
DWIDTH 6 0
BBX 5 8 1 0
BITMAP
80
80
A0
D0
88
88
90
F0
ENDCHAR
STARTCHAR C0099-c
ENCODING 99
SWIDTH 562 0
DWIDTH 6 0
BBX 5 6 0 0
BITMAP
30
48
80
80
40
78
ENDCHAR
STARTCHAR C0100-d
ENCODING 100
SWIDTH 562 0
DWIDTH 6 0
BBX 5 8 1 0
BITMAP
08
08
68
90
90
90
90
E8
ENDCHAR
STARTCHAR C0101-e
ENCODING 101
SWIDTH 562 0
DWIDTH 6 0
BBX 5 6 0 0
BITMAP
30
48
C8
70
40
38
ENDCHAR
STARTCHAR C0102-f
ENCODING 102
SWIDTH 375 0
DWIDTH 4 0
BBX 4 8 0 0
BITMAP
70
40
E0
40
40
40
40
40
ENDCHAR
STARTCHAR C0103-g
ENCODING 103
SWIDTH 562 0
DWIDTH 6 0
BBX 4 9 1 -3
BITMAP
70
90
90
90
90
F0
10
90
60
ENDCHAR
STARTCHAR C0104-h
ENCODING 104
SWIDTH 562 0
DWIDTH 6 0
BBX 5 8 1 0
BITMAP
80
80
A0
D0
88
88
90
88
ENDCHAR
STARTCHAR C0105-i
ENCODING 105
SWIDTH 187 0
DWIDTH 2 0
BBX 1 8 1 0
BITMAP
80
00
80
80
80
80
80
80
ENDCHAR
STARTCHAR C0106-j
ENCODING 106
SWIDTH 187 0
DWIDTH 2 0
BBX 2 10 0 -2
BITMAP
40
00
40
40
40
40
40
40
40
80
ENDCHAR
STARTCHAR C0107-k
ENCODING 107
SWIDTH 562 0
DWIDTH 6 0
BBX 4 8 1 0
BITMAP
80
80
A0
D0
90
E0
A0
90
ENDCHAR
STARTCHAR C0108-l
ENCODING 108
SWIDTH 187 0
DWIDTH 2 0
BBX 1 8 1 0
BITMAP
80
80
80
80
80
80
80
80
ENDCHAR
STARTCHAR C0109-m
ENCODING 109
SWIDTH 937 0
DWIDTH 10 0
BBX 8 6 1 0
BITMAP
A6
D9
91
91
91
91
ENDCHAR
STARTCHAR C0110-n
ENCODING 110
SWIDTH 562 0
DWIDTH 6 0
BBX 5 6 1 0
BITMAP
A0
D0
88
88
88
88
ENDCHAR
STARTCHAR C0111-o
ENCODING 111
SWIDTH 562 0
DWIDTH 6 0
BBX 6 6 0 0
BITMAP
30
48
84
84
44
78
ENDCHAR
STARTCHAR C0112-p
ENCODING 112
SWIDTH 562 0
DWIDTH 6 0
BBX 5 9 1 -3
BITMAP
A0
D0
88
88
88
F0
80
80
80
ENDCHAR
STARTCHAR C0113-q
ENCODING 113
SWIDTH 562 0
DWIDTH 6 0
BBX 4 9 1 -3
BITMAP
70
90
90
90
90
F0
10
10
10
ENDCHAR
STARTCHAR C0114-r
ENCODING 114
SWIDTH 375 0
DWIDTH 4 0
BBX 3 6 1 0
BITMAP
A0
E0
80
80
80
80
ENDCHAR
STARTCHAR C0115-s
ENCODING 115
SWIDTH 468 0
DWIDTH 5 0
BBX 5 6 0 0
BITMAP
20
50
40
30
88
70
ENDCHAR
STARTCHAR C0116-t
ENCODING 116
SWIDTH 375 0
DWIDTH 4 0
BBX 3 7 0 0
BITMAP
40
E0
40
40
40
40
60
ENDCHAR
STARTCHAR C0117-u
ENCODING 117
SWIDTH 562 0
DWIDTH 6 0
BBX 5 6 1 0
BITMAP
90
88
90
90
90
E8
ENDCHAR
STARTCHAR C0118-v
ENCODING 118
SWIDTH 468 0
DWIDTH 5 0
BBX 5 6 0 0
BITMAP
88
88
48
50
50
20
ENDCHAR
STARTCHAR C0119-w
ENCODING 119
SWIDTH 843 0
DWIDTH 9 0
BBX 8 6 0 0
BITMAP
89
89
59
55
56
22
ENDCHAR
STARTCHAR C0120-x
ENCODING 120
SWIDTH 468 0
DWIDTH 5 0
BBX 5 6 0 0
BITMAP
88
50
30
20
50
C8
ENDCHAR
STARTCHAR C0121-y
ENCODING 121
SWIDTH 562 0
DWIDTH 6 0
BBX 5 9 1 -3
BITMAP
90
88
90
90
90
E8
10
90
60
ENDCHAR
STARTCHAR C0122-z
ENCODING 122
SWIDTH 468 0
DWIDTH 5 0
BBX 5 6 0 0
BITMAP
F8
10
10
20
40
F8
ENDCHAR
STARTCHAR C0123-{
ENCODING 123
SWIDTH 281 0
DWIDTH 3 0
BBX 3 11 0 -3
BITMAP
60
40
40
40
40
C0
40
40
40
40
20
ENDCHAR
STARTCHAR C0124-|
ENCODING 124
SWIDTH 187 0
DWIDTH 2 0
BBX 1 12 1 -3
BITMAP
80
80
80
80
80
80
80
80
80
80
80
80
ENDCHAR
STARTCHAR C0125-}
ENCODING 125
SWIDTH 281 0
DWIDTH 3 0
BBX 3 11 0 -3
BITMAP
C0
40
40
40
40
60
40
40
40
40
80
ENDCHAR
STARTCHAR C0126-~
ENCODING 126
SWIDTH 562 0
DWIDTH 6 0
BBX 4 2 1 2
BITMAP
50
B0
ENDCHAR
STARTCHAR C0127
ENCODING 127
SWIDTH 1031 0
DWIDTH 11 0
BBX 1 1 0 -1
BITMAP
00
ENDCHAR
STARTCHAR C0128
ENCODING 128
SWIDTH 656 0
DWIDTH 7 0
BBX 5 8 1 0
BITMAP
38
48
40
F0
F0
80
40
38
ENDCHAR
STARTCHAR C0129
ENCODING 129
SWIDTH 1031 0
DWIDTH 11 0
BBX 1 1 0 -1
BITMAP
00
ENDCHAR
STARTCHAR C0130
ENCODING 130
SWIDTH 187 0
DWIDTH 2 0
BBX 1 2 1 -1
BITMAP
80
80
ENDCHAR
STARTCHAR C0131
ENCODING 131
SWIDTH 1031 0
DWIDTH 11 0
BBX 1 1 0 -1
BITMAP
00
ENDCHAR
STARTCHAR C0132
ENCODING 132
SWIDTH 375 0
DWIDTH 4 0
BBX 3 2 1 -1
BITMAP
A0
A0
ENDCHAR
STARTCHAR C0133
ENCODING 133
SWIDTH 562 0
DWIDTH 6 0
BBX 5 1 1 0
BITMAP
A8
ENDCHAR
STARTCHAR C0134
ENCODING 134
SWIDTH 562 0
DWIDTH 6 0
BBX 5 10 0 -2
BITMAP
20
20
F8
20
20
20
20
20
20
20
ENDCHAR
STARTCHAR C0135
ENCODING 135
SWIDTH 562 0
DWIDTH 6 0
BBX 4 10 1 -2
BITMAP
40
40
F0
40
40
F0
40
40
40
40
ENDCHAR
STARTCHAR C0136
ENCODING 136
SWIDTH 468 0
DWIDTH 5 0
BBX 3 2 1 6
BITMAP
C0
A0
ENDCHAR
STARTCHAR C0137
ENCODING 137
SWIDTH 1218 0
DWIDTH 13 0
BBX 11 8 1 0
BITMAP
C800
B800
A800
D000
1440
1AA0
2AA0
2EE0
ENDCHAR
STARTCHAR C0138
ENCODING 138
SWIDTH 1031 0
DWIDTH 11 0
BBX 1 1 0 -1
BITMAP
00
ENDCHAR
STARTCHAR C0139
ENCODING 139
SWIDTH 281 0
DWIDTH 3 0
BBX 3 4 0 2
BITMAP
20
40
C0
20
ENDCHAR
STARTCHAR C0140
ENCODING 140
SWIDTH 937 0
DWIDTH 10 0
BBX 9 8 1 0
BITMAP
7F80
8400
8400
8700
8400
8400
8400
7F80
ENDCHAR
STARTCHAR C0141
ENCODING 141
SWIDTH 1031 0
DWIDTH 11 0
BBX 1 1 0 -1
BITMAP
00
ENDCHAR
STARTCHAR C0142
ENCODING 142
SWIDTH 1031 0
DWIDTH 11 0
BBX 1 1 0 -1
BITMAP
00
ENDCHAR
STARTCHAR C0143
ENCODING 143
SWIDTH 1031 0
DWIDTH 11 0
BBX 1 1 0 -1
BITMAP
00
ENDCHAR
STARTCHAR C0144
ENCODING 144
SWIDTH 1031 0
DWIDTH 11 0
BBX 1 1 0 -1
BITMAP
00
ENDCHAR
STARTCHAR C0145
ENCODING 145
SWIDTH 187 0
DWIDTH 2 0
BBX 1 3 1 5
BITMAP
80
80
80
ENDCHAR
STARTCHAR C0146
ENCODING 146
SWIDTH 187 0
DWIDTH 2 0
BBX 1 3 1 5
BITMAP
80
80
80
ENDCHAR
STARTCHAR C0147
ENCODING 147
SWIDTH 375 0
DWIDTH 4 0
BBX 3 3 1 5
BITMAP
A0
C0
C0
ENDCHAR
STARTCHAR C0148
ENCODING 148
SWIDTH 375 0
DWIDTH 4 0
BBX 3 3 1 5
BITMAP
A0
A0
C0
ENDCHAR
STARTCHAR C0149
ENCODING 149
SWIDTH 281 0
DWIDTH 3 0
BBX 2 3 1 3
BITMAP
80
C0
80
ENDCHAR
STARTCHAR C0150
ENCODING 150
SWIDTH 562 0
DWIDTH 6 0
BBX 5 1 1 3
BITMAP
F8
ENDCHAR
STARTCHAR C0151
ENCODING 151
SWIDTH 843 0
DWIDTH 9 0
BBX 8 1 1 3
BITMAP
FF
ENDCHAR
STARTCHAR C0152
ENCODING 152
SWIDTH 468 0
DWIDTH 5 0
BBX 4 2 1 6
BITMAP
D0
A0
ENDCHAR
STARTCHAR C0153
ENCODING 153
SWIDTH 937 0
DWIDTH 10 0
BBX 8 4 1 4
BITMAP
FB
4A
55
55
ENDCHAR
STARTCHAR C0154
ENCODING 154
SWIDTH 1031 0
DWIDTH 11 0
BBX 1 1 0 -1
BITMAP
00
ENDCHAR
STARTCHAR C0155
ENCODING 155
SWIDTH 281 0
DWIDTH 3 0
BBX 2 4 1 2
BITMAP
80
80
40
80
ENDCHAR
STARTCHAR C0156
ENCODING 156
SWIDTH 937 0
DWIDTH 10 0
BBX 9 6 0 0
BITMAP
3300
4C80
8480
8700
4400
7B80
ENDCHAR
STARTCHAR C0157
ENCODING 157
SWIDTH 1031 0
DWIDTH 11 0
BBX 1 1 0 -1
BITMAP
00
ENDCHAR
STARTCHAR C0158
ENCODING 158
SWIDTH 1031 0
DWIDTH 11 0
BBX 1 1 0 -1
BITMAP
00
ENDCHAR
STARTCHAR C0159
ENCODING 159
SWIDTH 562 0
DWIDTH 6 0
BBX 6 11 0 0
BITMAP
28
30
00
84
48
48
30
10
10
10
10
ENDCHAR
STARTCHAR C0160
ENCODING 160
SWIDTH 281 0
DWIDTH 3 0
BBX 1 1 0 -1
BITMAP
00
ENDCHAR
STARTCHAR C0161
ENCODING 161
SWIDTH 187 0
DWIDTH 2 0
BBX 1 9 1 -3
BITMAP
80
00
80
80
80
80
80
80
80
ENDCHAR
STARTCHAR C0162
ENCODING 162
SWIDTH 562 0
DWIDTH 6 0
BBX 4 8 1 -1
BITMAP
20
60
B0
A0
A0
A0
70
20
ENDCHAR
STARTCHAR C0163
ENCODING 163
SWIDTH 562 0
DWIDTH 6 0
BBX 4 8 1 0
BITMAP
70
80
80
80
E0
80
80
F0
ENDCHAR
STARTCHAR C0164
ENCODING 164
SWIDTH 656 0
DWIDTH 7 0
BBX 5 6 1 0
BITMAP
B8
48
88
88
F8
88
ENDCHAR
STARTCHAR C0165
ENCODING 165
SWIDTH 562 0
DWIDTH 6 0
BBX 5 8 1 0
BITMAP
88
90
50
60
F8
F8
20
20
ENDCHAR
STARTCHAR C0166
ENCODING 166
SWIDTH 281 0
DWIDTH 3 0
BBX 1 11 1 -3
BITMAP
80
80
80
80
00
00
80
80
80
80
80
ENDCHAR
STARTCHAR C0167
ENCODING 167
SWIDTH 562 0
DWIDTH 6 0
BBX 4 11 1 -3
BITMAP
F0
80
40
E0
90
90
50
30
10
90
60
ENDCHAR
STARTCHAR C0168
ENCODING 168
SWIDTH 375 0
DWIDTH 4 0
BBX 3 1 1 7
BITMAP
A0
ENDCHAR
STARTCHAR C0169
ENCODING 169
SWIDTH 750 0
DWIDTH 8 0
BBX 7 7 1 1
BITMAP
78
B4
C2
C2
BC
44
38
ENDCHAR
STARTCHAR C0170
ENCODING 170
SWIDTH 468 0
DWIDTH 5 0
BBX 3 4 1 4
BITMAP
E0
A0
A0
E0
ENDCHAR
STARTCHAR C0171
ENCODING 171
SWIDTH 562 0
DWIDTH 6 0
BBX 5 4 0 2
BITMAP
28
50
D0
28
ENDCHAR
STARTCHAR C0172
ENCODING 172
SWIDTH 656 0
DWIDTH 7 0
BBX 5 2 1 1
BITMAP
F8
08
ENDCHAR
STARTCHAR C0173
ENCODING 173
SWIDTH 468 0
DWIDTH 5 0
BBX 3 1 1 3
BITMAP
E0
ENDCHAR
STARTCHAR C0174
ENCODING 174
SWIDTH 750 0
DWIDTH 8 0
BBX 7 7 1 1
BITMAP
78
B4
CA
B2
CC
44
38
ENDCHAR
STARTCHAR C0175
ENCODING 175
SWIDTH 468 0
DWIDTH 5 0
BBX 3 1 1 7
BITMAP
E0
ENDCHAR
STARTCHAR C0176
ENCODING 176
SWIDTH 375 0
DWIDTH 4 0
BBX 2 3 1 5
BITMAP
C0
C0
C0
ENDCHAR
STARTCHAR C0177
ENCODING 177
SWIDTH 562 0
DWIDTH 6 0
BBX 5 6 1 0
BITMAP
20
20
F8
20
20
F8
ENDCHAR
STARTCHAR C0178
ENCODING 178
SWIDTH 375 0
DWIDTH 4 0
BBX 3 4 1 4
BITMAP
C0
40
80
E0
ENDCHAR
STARTCHAR C0179
ENCODING 179
SWIDTH 375 0
DWIDTH 4 0
BBX 3 4 1 4
BITMAP
C0
C0
20
C0
ENDCHAR
STARTCHAR C0180
ENCODING 180
SWIDTH 281 0
DWIDTH 3 0
BBX 1 1 1 7
BITMAP
80
ENDCHAR
STARTCHAR C0181
ENCODING 181
SWIDTH 656 0
DWIDTH 7 0
BBX 5 9 1 -3
BITMAP
88
88
88
88
98
E8
80
80
80
ENDCHAR
STARTCHAR C0182
ENCODING 182
SWIDTH 656 0
DWIDTH 7 0
BBX 6 11 0 -3
BITMAP
7C
74
F4
74
14
14
14
14
14
14
14
ENDCHAR
STARTCHAR C0183
ENCODING 183
SWIDTH 187 0
DWIDTH 2 0
BBX 1 1 1 2
BITMAP
80
ENDCHAR
STARTCHAR C0184
ENCODING 184
SWIDTH 375 0
DWIDTH 4 0
BBX 3 3 0 -3
BITMAP
40
A0
40
ENDCHAR
STARTCHAR C0185
ENCODING 185
SWIDTH 281 0
DWIDTH 3 0
BBX 3 4 0 4
BITMAP
60
A0
20
20
ENDCHAR
STARTCHAR C0186
ENCODING 186
SWIDTH 375 0
DWIDTH 4 0
BBX 2 4 1 4
BITMAP
C0
C0
C0
C0
ENDCHAR
STARTCHAR C0187
ENCODING 187
SWIDTH 562 0
DWIDTH 6 0
BBX 4 4 1 2
BITMAP
A0
90
50
A0
ENDCHAR
STARTCHAR C0188
ENCODING 188
SWIDTH 843 0
DWIDTH 9 0
BBX 9 8 0 0
BITMAP
6400
A400
2800
2900
0B00
1300
1780
1100
ENDCHAR
STARTCHAR C0189
ENCODING 189
SWIDTH 843 0
DWIDTH 9 0
BBX 9 8 0 0
BITMAP
6400
A400
2800
2B00
0880
1100
1200
1380
ENDCHAR
STARTCHAR C0190
ENCODING 190
SWIDTH 937 0
DWIDTH 10 0
BBX 8 8 1 0
BITMAP
C4
C8
28
E9
13
15
17
21
ENDCHAR
STARTCHAR C0191
ENCODING 191
SWIDTH 468 0
DWIDTH 5 0
BBX 3 9 1 -3
BITMAP
40
00
40
40
40
80
80
A0
40
ENDCHAR
STARTCHAR C0192
ENCODING 192
SWIDTH 656 0
DWIDTH 7 0
BBX 7 11 0 0
BITMAP
20
10
00
10
28
28
28
FE
44
44
82
ENDCHAR
STARTCHAR C0193
ENCODING 193
SWIDTH 656 0
DWIDTH 7 0
BBX 7 11 0 0
BITMAP
08
10
00
10
28
28
28
FE
44
44
82
ENDCHAR
STARTCHAR C0194
ENCODING 194
SWIDTH 656 0
DWIDTH 7 0
BBX 7 11 0 0
BITMAP
10
28
00
10
28
28
28
FE
44
44
82
ENDCHAR
STARTCHAR C0195
ENCODING 195
SWIDTH 656 0
DWIDTH 7 0
BBX 7 10 0 0
BITMAP
3C
00
10
28
28
28
FE
44
44
82
ENDCHAR
STARTCHAR C0196
ENCODING 196
SWIDTH 656 0
DWIDTH 7 0
BBX 7 11 0 0
BITMAP
28
28
00
10
28
28
28
FE
44
44
82
ENDCHAR
STARTCHAR C0197
ENCODING 197
SWIDTH 656 0
DWIDTH 7 0
BBX 7 11 0 0
BITMAP
10
38
00
10
28
28
28
FE
44
44
82
ENDCHAR
STARTCHAR C0198
ENCODING 198
SWIDTH 843 0
DWIDTH 9 0
BBX 9 8 0 0
BITMAP
1F00
2800
2800
2F00
F800
4800
4800
8780
ENDCHAR
STARTCHAR C0199
ENCODING 199
SWIDTH 656 0
DWIDTH 7 0
BBX 6 11 1 -3
BITMAP
78
80
80
80
80
80
84
78
20
10
30
ENDCHAR
STARTCHAR C0200
ENCODING 200
SWIDTH 562 0
DWIDTH 6 0
BBX 6 11 0 0
BITMAP
20
10
00
7C
40
40
F8
40
40
40
7C
ENDCHAR
STARTCHAR C0201
ENCODING 201
SWIDTH 562 0
DWIDTH 6 0
BBX 6 11 0 0
BITMAP
08
10
00
7C
40
40
F8
40
40
40
7C
ENDCHAR
STARTCHAR C0202
ENCODING 202
SWIDTH 562 0
DWIDTH 6 0
BBX 6 11 0 0
BITMAP
10
28
00
7C
40
40
F8
40
40
40
7C
ENDCHAR
STARTCHAR C0203
ENCODING 203
SWIDTH 562 0
DWIDTH 6 0
BBX 6 11 0 0
BITMAP
28
28
00
7C
40
40
F8
40
40
40
7C
ENDCHAR
STARTCHAR C0204
ENCODING 204
SWIDTH 468 0
DWIDTH 5 0
BBX 4 11 0 0
BITMAP
40
20
00
F0
20
20
20
20
20
20
F0
ENDCHAR
STARTCHAR C0205
ENCODING 205
SWIDTH 468 0
DWIDTH 5 0
BBX 4 11 0 0
BITMAP
10
20
00
F0
20
20
20
20
20
20
F0
ENDCHAR
STARTCHAR C0206
ENCODING 206
SWIDTH 468 0
DWIDTH 5 0
BBX 4 11 0 0
BITMAP
20
50
00
F0
20
20
20
20
20
20
F0
ENDCHAR
STARTCHAR C0207
ENCODING 207
SWIDTH 468 0
DWIDTH 5 0
BBX 4 11 0 0
BITMAP
50
50
00
F0
20
20
20
20
20
20
F0
ENDCHAR
STARTCHAR C0208
ENCODING 208
SWIDTH 750 0
DWIDTH 8 0
BBX 7 8 0 0
BITMAP
7C
42
42
F2
42
42
42
7C
ENDCHAR
STARTCHAR C0209
ENCODING 209
SWIDTH 750 0
DWIDTH 8 0
BBX 6 10 1 0
BITMAP
78
00
84
C4
A4
A4
94
94
88
8C
ENDCHAR
STARTCHAR C0210
ENCODING 210
SWIDTH 843 0
DWIDTH 9 0
BBX 7 11 1 0
BITMAP
20
30
00
7C
84
82
82
82
82
84
78
ENDCHAR
STARTCHAR C0211
ENCODING 211
SWIDTH 843 0
DWIDTH 9 0
BBX 7 11 1 0
BITMAP
10
10
00
7C
84
82
82
82
82
84
78
ENDCHAR
STARTCHAR C0212
ENCODING 212
SWIDTH 843 0
DWIDTH 9 0
BBX 7 11 1 0
BITMAP
10
28
00
7C
84
82
82
82
82
84
78
ENDCHAR
STARTCHAR C0213
ENCODING 213
SWIDTH 843 0
DWIDTH 9 0
BBX 7 10 1 0
BITMAP
78
00
7C
84
82
82
82
82
84
78
ENDCHAR
STARTCHAR C0214
ENCODING 214
SWIDTH 843 0
DWIDTH 9 0
BBX 7 11 1 0
BITMAP
28
28
00
7C
84
82
82
82
82
84
78
ENDCHAR
STARTCHAR C0215
ENCODING 215
SWIDTH 562 0
DWIDTH 6 0
BBX 4 4 1 1
BITMAP
90
60
60
90
ENDCHAR
STARTCHAR C0216
ENCODING 216
SWIDTH 750 0
DWIDTH 8 0
BBX 7 10 1 -1
BITMAP
08
78
8C
92
92
A2
A4
A4
78
40
ENDCHAR
STARTCHAR C0217
ENCODING 217
SWIDTH 750 0
DWIDTH 8 0
BBX 6 11 1 0
BITMAP
20
20
00
84
84
84
84
84
88
88
78
ENDCHAR
STARTCHAR C0218
ENCODING 218
SWIDTH 750 0
DWIDTH 8 0
BBX 6 11 1 0
BITMAP
10
30
00
84
84
84
84
84
88
88
78
ENDCHAR
STARTCHAR C0219
ENCODING 219
SWIDTH 750 0
DWIDTH 8 0
BBX 6 11 1 0
BITMAP
20
50
00
84
84
84
84
84
88
88
78
ENDCHAR
STARTCHAR C0220
ENCODING 220
SWIDTH 750 0
DWIDTH 8 0
BBX 6 11 1 0
BITMAP
50
50
00
84
84
84
84
84
88
88
78
ENDCHAR
STARTCHAR C0221
ENCODING 221
SWIDTH 562 0
DWIDTH 6 0
BBX 6 11 0 0
BITMAP
10
10
00
84
48
48
30
10
10
10
10
ENDCHAR
STARTCHAR C0222
ENCODING 222
SWIDTH 562 0
DWIDTH 6 0
BBX 5 8 1 0
BITMAP
80
F0
88
88
88
F0
80
80
ENDCHAR
STARTCHAR C0223
ENCODING 223
SWIDTH 562 0
DWIDTH 6 0
BBX 6 8 0 0
BITMAP
78
48
D0
50
50
48
44
58
ENDCHAR
STARTCHAR C0224
ENCODING 224
SWIDTH 562 0
DWIDTH 6 0
BBX 5 8 1 0
BITMAP
40
00
70
90
90
90
90
E8
ENDCHAR
STARTCHAR C0225
ENCODING 225
SWIDTH 562 0
DWIDTH 6 0
BBX 5 8 1 0
BITMAP
20
00
70
90
90
90
90
E8
ENDCHAR
STARTCHAR C0226
ENCODING 226
SWIDTH 562 0
DWIDTH 6 0
BBX 5 8 1 0
BITMAP
60
90
70
90
90
90
90
E8
ENDCHAR
STARTCHAR C0227
ENCODING 227
SWIDTH 562 0
DWIDTH 6 0
BBX 5 8 1 0
BITMAP
68
50
70
90
90
90
90
E8
ENDCHAR
STARTCHAR C0228
ENCODING 228
SWIDTH 562 0
DWIDTH 6 0
BBX 5 8 1 0
BITMAP
50
00
70
90
90
90
90
E8
ENDCHAR
STARTCHAR C0229
ENCODING 229
SWIDTH 562 0
DWIDTH 6 0
BBX 5 8 1 0
BITMAP
60
60
70
90
90
90
90
E8
ENDCHAR
STARTCHAR C0230
ENCODING 230
SWIDTH 843 0
DWIDTH 9 0
BBX 9 6 0 0
BITMAP
3300
4C80
2880
5F00
8800
7780
ENDCHAR
STARTCHAR C0231
ENCODING 231
SWIDTH 562 0
DWIDTH 6 0
BBX 5 9 0 -3
BITMAP
30
48
80
80
40
78
10
10
30
ENDCHAR
STARTCHAR C0232
ENCODING 232
SWIDTH 562 0
DWIDTH 6 0
BBX 5 8 0 0
BITMAP
20
00
30
48
C8
70
40
38
ENDCHAR
STARTCHAR C0233
ENCODING 233
SWIDTH 562 0
DWIDTH 6 0
BBX 5 8 0 0
BITMAP
10
00
30
48
C8
70
40
38
ENDCHAR
STARTCHAR C0234
ENCODING 234
SWIDTH 562 0
DWIDTH 6 0
BBX 5 8 0 0
BITMAP
30
28
30
48
C8
70
40
38
ENDCHAR
STARTCHAR C0235
ENCODING 235
SWIDTH 562 0
DWIDTH 6 0
BBX 5 8 0 0
BITMAP
28
00
30
48
C8
70
40
38
ENDCHAR
STARTCHAR C0236
ENCODING 236
SWIDTH 187 0
DWIDTH 2 0
BBX 2 8 0 0
BITMAP
80
40
40
40
40
40
40
40
ENDCHAR
STARTCHAR C0237
ENCODING 237
SWIDTH 187 0
DWIDTH 2 0
BBX 1 8 1 0
BITMAP
80
00
80
80
80
80
80
80
ENDCHAR
STARTCHAR C0238
ENCODING 238
SWIDTH 187 0
DWIDTH 2 0
BBX 3 8 0 0
BITMAP
C0
A0
40
40
40
40
40
40
ENDCHAR
STARTCHAR C0239
ENCODING 239
SWIDTH 187 0
DWIDTH 2 0
BBX 3 8 0 0
BITMAP
A0
00
40
40
40
40
40
40
ENDCHAR
STARTCHAR C0240
ENCODING 240
SWIDTH 562 0
DWIDTH 6 0
BBX 5 8 1 0
BITMAP
F0
50
10
F0
88
88
90
F0
ENDCHAR
STARTCHAR C0241
ENCODING 241
SWIDTH 562 0
DWIDTH 6 0
BBX 5 8 1 0
BITMAP
D0
A0
A0
D0
88
88
88
88
ENDCHAR
STARTCHAR C0242
ENCODING 242
SWIDTH 562 0
DWIDTH 6 0
BBX 6 8 0 0
BITMAP
20
10
30
48
84
84
44
78
ENDCHAR
STARTCHAR C0243
ENCODING 243
SWIDTH 562 0
DWIDTH 6 0
BBX 6 8 0 0
BITMAP
10
00
30
48
84
84
44
78
ENDCHAR
STARTCHAR C0244
ENCODING 244
SWIDTH 562 0
DWIDTH 6 0
BBX 6 8 0 0
BITMAP
30
28
30
48
84
84
44
78
ENDCHAR
STARTCHAR C0245
ENCODING 245
SWIDTH 562 0
DWIDTH 6 0
BBX 6 8 0 0
BITMAP
68
50
30
48
84
84
44
78
ENDCHAR
STARTCHAR C0246
ENCODING 246
SWIDTH 562 0
DWIDTH 6 0
BBX 6 8 0 0
BITMAP
30
00
30
48
84
84
44
78
ENDCHAR
STARTCHAR C0247
ENCODING 247
SWIDTH 562 0
DWIDTH 6 0
BBX 4 5 1 0
BITMAP
20
00
F0
20
20
ENDCHAR
STARTCHAR C0248
ENCODING 248
SWIDTH 562 0
DWIDTH 6 0
BBX 6 7 0 -1
BITMAP
38
58
94
A4
68
78
40
ENDCHAR
STARTCHAR C0249
ENCODING 249
SWIDTH 562 0
DWIDTH 6 0
BBX 5 8 1 0
BITMAP
40
00
90
88
90
90
90
E8
ENDCHAR
STARTCHAR C0250
ENCODING 250
SWIDTH 562 0
DWIDTH 6 0
BBX 5 8 1 0
BITMAP
20
00
90
88
90
90
90
E8
ENDCHAR
STARTCHAR C0251
ENCODING 251
SWIDTH 562 0
DWIDTH 6 0
BBX 5 8 1 0
BITMAP
60
90
90
88
90
90
90
E8
ENDCHAR
STARTCHAR C0252
ENCODING 252
SWIDTH 562 0
DWIDTH 6 0
BBX 5 8 1 0
BITMAP
50
00
90
88
90
90
90
E8
ENDCHAR
STARTCHAR C0253
ENCODING 253
SWIDTH 562 0
DWIDTH 6 0
BBX 5 11 1 -3
BITMAP
20
00
90
88
90
90
90
E8
10
90
60
ENDCHAR
STARTCHAR C0254
ENCODING 254
SWIDTH 562 0
DWIDTH 6 0
BBX 5 11 1 -3
BITMAP
80
80
A0
D0
88
88
90
F0
80
80
80
ENDCHAR
STARTCHAR C0255
ENCODING 255
SWIDTH 562 0
DWIDTH 6 0
BBX 5 11 1 -3
BITMAP
50
00
90
88
90
90
90
E8
10
90
60
ENDCHAR
ENDFONT

