STARTFONT 2.1
COMMENT 
COMMENT This file has been produced by ttf2bdf written by Subhabrata Biswas
COMMENT 
COMMENT For comments, questions, bug reports, send a mail to
COMMENT                                           subhabrata.biswas@usa.net
COMMENT 
FONT -*-Delius-Medium-R-Normal--13-100-96-96-c-6--fontspecific
SIZE 10 96 96
FONTBOUNDINGBOX 16 17 -1 -4
STARTPROPERTIES 15
FOUNDRY "Misc"
FAMILY_NAME "Delius"
WEIGHT_NAME "Medium"
SLANT "R"
SETWIDTH_NAME "Normal"
PIXEL_SIZE 9
POINT_SIZE 100
RESOLUTION_X 96
RESOLUTION_Y 96
SPACING "C"
CHARSET_ENCODING "fontspecific"
FONT_ASCENT 13
FONT_DESCENT 4
DEFAULT_CHAR 31
COPYRIGHT "You may wish to put your copyright here"
ENDPROPERTIES
CHARS 226
STARTCHAR C0030
ENCODING 30
SWIDTH 975 0
DWIDTH 13 0
BBX 1 1 0 -1
BITMAP
00
ENDCHAR
STARTCHAR C0031
ENCODING 31
SWIDTH 975 0
DWIDTH 13 0
BBX 1 1 0 -1
BITMAP
00
ENDCHAR
STARTCHAR C0032- 
ENCODING 32
SWIDTH 225 0
DWIDTH 3 0
BBX 1 1 0 -1
BITMAP
00
ENDCHAR
STARTCHAR C0033-!
ENCODING 33
SWIDTH 225 0
DWIDTH 3 0
BBX 1 10 1 0
BITMAP
80
80
80
80
80
80
80
00
00
80
ENDCHAR
STARTCHAR C0034-"
ENCODING 34
SWIDTH 300 0
DWIDTH 4 0
BBX 3 3 1 6
BITMAP
A0
A0
A0
ENDCHAR
STARTCHAR C0035-#
ENCODING 35
SWIDTH 750 0
DWIDTH 10 0
BBX 9 9 1 0
BITMAP
1200
1200
FB80
2400
2400
FF00
2400
2400
4800
ENDCHAR
STARTCHAR C0036-$
ENCODING 36
SWIDTH 525 0
DWIDTH 7 0
BBX 6 11 1 -1
BITMAP
20
78
A0
A0
60
30
28
24
A8
F8
20
ENDCHAR
STARTCHAR C0037-%
ENCODING 37
SWIDTH 750 0
DWIDTH 10 0
BBX 9 10 1 0
BITMAP
0200
E400
BC00
A800
E800
0800
1700
1480
1480
2700
ENDCHAR
STARTCHAR C0038-&
ENCODING 38
SWIDTH 750 0
DWIDTH 10 0
BBX 9 10 1 0
BITMAP
7000
D000
8300
4080
6080
8F00
9400
8400
8400
7800
ENDCHAR
STARTCHAR C0039-'
ENCODING 39
SWIDTH 150 0
DWIDTH 2 0
BBX 1 3 1 6
BITMAP
80
80
80
ENDCHAR
STARTCHAR C0040-(
ENCODING 40
SWIDTH 300 0
DWIDTH 4 0
BBX 3 13 1 -3
BITMAP
20
40
C0
80
80
80
80
80
80
80
80
40
40
ENDCHAR
STARTCHAR C0041-)
ENCODING 41
SWIDTH 300 0
DWIDTH 4 0
BBX 3 13 0 -3
BITMAP
80
40
60
20
20
20
20
20
20
20
20
40
80
ENDCHAR
STARTCHAR C0042-*
ENCODING 42
SWIDTH 450 0
DWIDTH 6 0
BBX 4 4 1 6
BITMAP
40
D0
60
D0
ENDCHAR
STARTCHAR C0043-+
ENCODING 43
SWIDTH 525 0
DWIDTH 7 0
BBX 5 6 1 0
BITMAP
20
20
F8
20
20
20
ENDCHAR
STARTCHAR C0044-,
ENCODING 44
SWIDTH 225 0
DWIDTH 3 0
BBX 2 3 0 -2
BITMAP
40
40
80
ENDCHAR
STARTCHAR C0045--
ENCODING 45
SWIDTH 450 0
DWIDTH 6 0
BBX 4 1 1 3
BITMAP
F0
ENDCHAR
STARTCHAR C0046-.
ENCODING 46
SWIDTH 225 0
DWIDTH 3 0
BBX 1 1 1 0
BITMAP
80
ENDCHAR
STARTCHAR C0047-/
ENCODING 47
SWIDTH 375 0
DWIDTH 5 0
BBX 3 12 1 -2
BITMAP
20
20
20
40
40
40
40
40
80
80
80
80
ENDCHAR
STARTCHAR C0048-0
ENCODING 48
SWIDTH 675 0
DWIDTH 9 0
BBX 7 9 1 0
BITMAP
78
44
84
82
82
82
84
44
78
ENDCHAR
STARTCHAR C0049-1
ENCODING 49
SWIDTH 375 0
DWIDTH 5 0
BBX 4 9 0 0
BITMAP
30
30
50
90
10
10
10
10
10
ENDCHAR
STARTCHAR C0050-2
ENCODING 50
SWIDTH 525 0
DWIDTH 7 0
BBX 6 9 1 0
BITMAP
F0
88
08
08
10
20
40
80
FC
ENDCHAR
STARTCHAR C0051-3
ENCODING 51
SWIDTH 525 0
DWIDTH 7 0
BBX 6 9 1 0
BITMAP
F8
18
10
70
48
04
04
88
F8
ENDCHAR
STARTCHAR C0052-4
ENCODING 52
SWIDTH 600 0
DWIDTH 8 0
BBX 7 9 0 0
BITMAP
0C
14
34
24
44
FE
04
04
04
ENDCHAR
STARTCHAR C0053-5
ENCODING 53
SWIDTH 525 0
DWIDTH 7 0
BBX 6 9 1 0
BITMAP
F8
80
80
F8
88
04
04
88
78
ENDCHAR
STARTCHAR C0054-6
ENCODING 54
SWIDTH 600 0
DWIDTH 8 0
BBX 6 9 1 0
BITMAP
38
40
80
B8
C8
84
84
8C
78
ENDCHAR
STARTCHAR C0055-7
ENCODING 55
SWIDTH 450 0
DWIDTH 6 0
BBX 6 9 0 0
BITMAP
FC
04
08
08
10
10
20
20
20
ENDCHAR
STARTCHAR C0056-8
ENCODING 56
SWIDTH 525 0
DWIDTH 7 0
BBX 6 9 1 0
BITMAP
78
88
88
70
78
88
84
84
78
ENDCHAR
STARTCHAR C0057-9
ENCODING 57
SWIDTH 525 0
DWIDTH 7 0
BBX 6 9 1 0
BITMAP
78
88
84
8C
8C
78
08
10
E0
ENDCHAR
STARTCHAR C0058-:
ENCODING 58
SWIDTH 225 0
DWIDTH 3 0
BBX 1 7 1 0
BITMAP
80
80
00
00
00
00
80
ENDCHAR
STARTCHAR C0059-;
ENCODING 59
SWIDTH 225 0
DWIDTH 3 0
BBX 1 9 1 -2
BITMAP
80
80
00
00
00
00
80
80
80
ENDCHAR
STARTCHAR C0060-<
ENCODING 60
SWIDTH 525 0
DWIDTH 7 0
BBX 5 6 1 1
BITMAP
08
30
C0
80
70
18
ENDCHAR
STARTCHAR C0061-=
ENCODING 61
SWIDTH 600 0
DWIDTH 8 0
BBX 6 3 1 2
BITMAP
FC
00
FC
ENDCHAR
STARTCHAR C0062->
ENCODING 62
SWIDTH 525 0
DWIDTH 7 0
BBX 5 6 1 1
BITMAP
80
60
18
08
30
C0
ENDCHAR
STARTCHAR C0063-?
ENCODING 63
SWIDTH 450 0
DWIDTH 6 0
BBX 4 10 1 0
BITMAP
E0
90
10
10
20
40
40
00
00
40
ENDCHAR
STARTCHAR C0064-@
ENCODING 64
SWIDTH 975 0
DWIDTH 13 0
BBX 11 12 1 -3
BITMAP
1F80
2040
4020
8F20
9120
9120
9120
9320
8EC0
4000
6100
1E00
ENDCHAR
STARTCHAR C0065-A
ENCODING 65
SWIDTH 600 0
DWIDTH 8 0
BBX 8 10 0 0
BITMAP
08
18
18
24
24
24
FF
42
42
81
ENDCHAR
STARTCHAR C0066-B
ENCODING 66
SWIDTH 675 0
DWIDTH 9 0
BBX 7 10 1 0
BITMAP
F8
84
84
84
F8
84
82
82
86
FC
ENDCHAR
STARTCHAR C0067-C
ENCODING 67
SWIDTH 675 0
DWIDTH 9 0
BBX 7 10 1 0
BITMAP
3C
42
80
80
80
80
80
80
42
3C
ENDCHAR
STARTCHAR C0068-D
ENCODING 68
SWIDTH 675 0
DWIDTH 9 0
BBX 7 10 1 0
BITMAP
F0
8C
82
82
82
82
82
82
84
F8
ENDCHAR
STARTCHAR C0069-E
ENCODING 69
SWIDTH 600 0
DWIDTH 8 0
BBX 6 10 1 0
BITMAP
FC
80
80
80
F8
80
80
80
80
FC
ENDCHAR
STARTCHAR C0070-F
ENCODING 70
SWIDTH 525 0
DWIDTH 7 0
BBX 6 10 1 0
BITMAP
FC
80
80
80
F8
80
80
80
80
80
ENDCHAR
STARTCHAR C0071-G
ENCODING 71
SWIDTH 675 0
DWIDTH 9 0
BBX 8 10 1 0
BITMAP
3C
42
C0
80
80
9F
81
82
42
3C
ENDCHAR
STARTCHAR C0072-H
ENCODING 72
SWIDTH 675 0
DWIDTH 9 0
BBX 8 10 1 0
BITMAP
82
82
82
82
FF
82
82
82
82
82
ENDCHAR
STARTCHAR C0073-I
ENCODING 73
SWIDTH 450 0
DWIDTH 6 0
BBX 5 10 0 0
BITMAP
F8
20
20
20
20
20
20
20
20
F8
ENDCHAR
STARTCHAR C0074-J
ENCODING 74
SWIDTH 525 0
DWIDTH 7 0
BBX 6 10 0 0
BITMAP
3C
08
08
08
08
08
08
08
88
70
ENDCHAR
STARTCHAR C0075-K
ENCODING 75
SWIDTH 600 0
DWIDTH 8 0
BBX 7 10 1 0
BITMAP
84
84
88
88
F0
F0
98
88
84
86
ENDCHAR
STARTCHAR C0076-L
ENCODING 76
SWIDTH 525 0
DWIDTH 7 0
BBX 6 10 1 0
BITMAP
80
80
80
80
80
80
80
80
80
FC
ENDCHAR
STARTCHAR C0077-M
ENCODING 77
SWIDTH 825 0
DWIDTH 11 0
BBX 8 10 1 0
BITMAP
81
C1
C3
A3
A5
95
95
89
89
81
ENDCHAR
STARTCHAR C0078-N
ENCODING 78
SWIDTH 675 0
DWIDTH 9 0
BBX 7 10 1 0
BITMAP
82
C2
E2
A2
92
92
8A
8A
86
86
ENDCHAR
STARTCHAR C0079-O
ENCODING 79
SWIDTH 750 0
DWIDTH 10 0
BBX 8 10 1 0
BITMAP
3C
42
C1
81
81
81
81
81
42
3C
ENDCHAR
STARTCHAR C0080-P
ENCODING 80
SWIDTH 600 0
DWIDTH 8 0
BBX 6 10 1 0
BITMAP
F8
84
84
84
84
F8
80
80
80
80
ENDCHAR
STARTCHAR C0081-Q
ENCODING 81
SWIDTH 750 0
DWIDTH 10 0
BBX 8 12 1 -2
BITMAP
3C
46
82
81
81
81
81
8B
4A
3C
02
02
ENDCHAR
STARTCHAR C0082-R
ENCODING 82
SWIDTH 600 0
DWIDTH 8 0
BBX 7 10 1 0
BITMAP
F8
84
84
84
84
F8
88
88
84
86
ENDCHAR
STARTCHAR C0083-S
ENCODING 83
SWIDTH 525 0
DWIDTH 7 0
BBX 6 10 1 0
BITMAP
78
88
80
C0
60
18
08
04
88
F8
ENDCHAR
STARTCHAR C0084-T
ENCODING 84
SWIDTH 525 0
DWIDTH 7 0
BBX 6 10 0 0
BITMAP
FC
10
10
10
10
10
10
10
10
10
ENDCHAR
STARTCHAR C0085-U
ENCODING 85
SWIDTH 675 0
DWIDTH 9 0
BBX 7 10 1 0
BITMAP
82
82
82
82
82
82
82
82
44
78
ENDCHAR
STARTCHAR C0086-V
ENCODING 86
SWIDTH 600 0
DWIDTH 8 0
BBX 8 10 0 0
BITMAP
81
41
42
42
22
24
24
14
18
18
ENDCHAR
STARTCHAR C0087-W
ENCODING 87
SWIDTH 900 0
DWIDTH 12 0
BBX 11 10 0 0
BITMAP
8020
4020
4020
4620
4640
2640
2A40
2940
1980
1180
ENDCHAR
STARTCHAR C0088-X
ENCODING 88
SWIDTH 600 0
DWIDTH 8 0
BBX 8 10 0 0
BITMAP
C2
62
24
18
18
18
38
24
42
43
ENDCHAR
STARTCHAR C0089-Y
ENCODING 89
SWIDTH 525 0
DWIDTH 7 0
BBX 7 10 0 0
BITMAP
82
42
44
28
28
10
10
10
10
10
ENDCHAR
STARTCHAR C0090-Z
ENCODING 90
SWIDTH 525 0
DWIDTH 7 0
BBX 7 10 0 0
BITMAP
7E
04
04
08
18
10
20
20
40
FE
ENDCHAR
STARTCHAR C0091-[
ENCODING 91
SWIDTH 375 0
DWIDTH 5 0
BBX 3 13 1 -3
BITMAP
E0
80
80
80
80
80
80
80
80
80
80
80
E0
ENDCHAR
STARTCHAR C0092-\
ENCODING 92
SWIDTH 375 0
DWIDTH 5 0
BBX 3 12 1 -2
BITMAP
80
80
80
80
40
40
40
40
40
20
20
20
ENDCHAR
STARTCHAR C0093-]
ENCODING 93
SWIDTH 375 0
DWIDTH 5 0
BBX 4 13 0 -3
BITMAP
F0
10
10
10
10
10
10
10
10
10
10
10
F0
ENDCHAR
STARTCHAR C0094-^
ENCODING 94
SWIDTH 525 0
DWIDTH 7 0
BBX 5 5 1 5
BITMAP
20
60
50
88
88
ENDCHAR
STARTCHAR C0095-_
ENCODING 95
SWIDTH 525 0
DWIDTH 7 0
BBX 6 1 1 -3
BITMAP
FC
ENDCHAR
STARTCHAR C0096-`
ENCODING 96
SWIDTH 300 0
DWIDTH 4 0
BBX 2 2 1 8
BITMAP
80
C0
ENDCHAR
STARTCHAR C0097-a
ENCODING 97
SWIDTH 525 0
DWIDTH 7 0
BBX 6 7 1 0
BITMAP
28
D8
88
88
88
88
74
ENDCHAR
STARTCHAR C0098-b
ENCODING 98
SWIDTH 525 0
DWIDTH 7 0
BBX 6 10 1 0
BITMAP
80
80
80
B0
C8
88
84
88
88
F0
ENDCHAR
STARTCHAR C0099-c
ENCODING 99
SWIDTH 525 0
DWIDTH 7 0
BBX 5 7 1 0
BITMAP
30
C8
80
80
80
80
78
ENDCHAR
STARTCHAR C0100-d
ENCODING 100
SWIDTH 600 0
DWIDTH 8 0
BBX 6 10 1 0
BITMAP
04
04
04
34
C8
88
88
88
88
74
ENDCHAR
STARTCHAR C0101-e
ENCODING 101
SWIDTH 525 0
DWIDTH 7 0
BBX 6 7 0 0
BITMAP
18
24
44
FC
40
40
3C
ENDCHAR
STARTCHAR C0102-f
ENCODING 102
SWIDTH 300 0
DWIDTH 4 0
BBX 4 10 0 0
BITMAP
30
40
40
F0
40
40
40
40
40
40
ENDCHAR
STARTCHAR C0103-g
ENCODING 103
SWIDTH 525 0
DWIDTH 7 0
BBX 5 10 1 -3
BITMAP
38
C8
88
88
88
98
78
08
08
F0
ENDCHAR
STARTCHAR C0104-h
ENCODING 104
SWIDTH 600 0
DWIDTH 8 0
BBX 6 10 1 0
BITMAP
80
80
80
B0
C8
88
88
88
88
84
ENDCHAR
STARTCHAR C0105-i
ENCODING 105
SWIDTH 225 0
DWIDTH 3 0
BBX 1 9 1 0
BITMAP
80
00
80
80
80
80
80
80
80
ENDCHAR
STARTCHAR C0106-j
ENCODING 106
SWIDTH 225 0
DWIDTH 3 0
BBX 2 11 0 -2
BITMAP
40
00
40
40
40
40
40
40
40
40
80
ENDCHAR
STARTCHAR C0107-k
ENCODING 107
SWIDTH 525 0
DWIDTH 7 0
BBX 5 10 1 0
BITMAP
80
80
80
B0
C8
88
B0
A0
90
88
ENDCHAR
STARTCHAR C0108-l
ENCODING 108
SWIDTH 225 0
DWIDTH 3 0
BBX 1 10 1 0
BITMAP
80
80
80
80
80
80
80
80
80
80
ENDCHAR
STARTCHAR C0109-m
ENCODING 109
SWIDTH 825 0
DWIDTH 11 0
BBX 10 7 1 0
BITMAP
B300
CC80
8C80
8880
8880
8880
88C0
ENDCHAR
STARTCHAR C0110-n
ENCODING 110
SWIDTH 600 0
DWIDTH 8 0
BBX 6 7 1 0
BITMAP
B0
C8
88
88
88
88
84
ENDCHAR
STARTCHAR C0111-o
ENCODING 111
SWIDTH 525 0
DWIDTH 7 0
BBX 6 7 1 0
BITMAP
30
C8
84
84
84
88
78
ENDCHAR
STARTCHAR C0112-p
ENCODING 112
SWIDTH 525 0
DWIDTH 7 0
BBX 6 10 1 -3
BITMAP
B0
C8
84
84
84
88
F8
80
80
80
ENDCHAR
STARTCHAR C0113-q
ENCODING 113
SWIDTH 525 0
DWIDTH 7 0
BBX 5 10 1 -3
BITMAP
28
D8
88
88
88
88
78
08
08
08
ENDCHAR
STARTCHAR C0114-r
ENCODING 114
SWIDTH 375 0
DWIDTH 5 0
BBX 4 7 1 0
BITMAP
B0
D0
80
80
80
80
80
ENDCHAR
STARTCHAR C0115-s
ENCODING 115
SWIDTH 450 0
DWIDTH 6 0
BBX 5 7 0 0
BITMAP
30
48
40
30
08
88
78
ENDCHAR
STARTCHAR C0116-t
ENCODING 116
SWIDTH 300 0
DWIDTH 4 0
BBX 4 9 0 0
BITMAP
40
40
F0
40
40
40
40
40
30
ENDCHAR
STARTCHAR C0117-u
ENCODING 117
SWIDTH 600 0
DWIDTH 8 0
BBX 6 7 1 0
BITMAP
88
8C
88
88
88
88
74
ENDCHAR
STARTCHAR C0118-v
ENCODING 118
SWIDTH 450 0
DWIDTH 6 0
BBX 6 7 0 0
BITMAP
84
C4
48
48
28
30
30
ENDCHAR
STARTCHAR C0119-w
ENCODING 119
SWIDTH 750 0
DWIDTH 10 0
BBX 10 7 0 0
BITMAP
8440
CC40
4C80
4A80
5280
3300
3100
ENDCHAR
STARTCHAR C0120-x
ENCODING 120
SWIDTH 450 0
DWIDTH 6 0
BBX 6 7 0 0
BITMAP
C4
48
30
10
30
48
44
ENDCHAR
STARTCHAR C0121-y
ENCODING 121
SWIDTH 525 0
DWIDTH 7 0
BBX 6 10 1 -3
BITMAP
88
8C
88
88
88
88
78
08
08
F0
ENDCHAR
STARTCHAR C0122-z
ENCODING 122
SWIDTH 450 0
DWIDTH 6 0
BBX 6 7 0 0
BITMAP
7C
08
18
10
20
40
FC
ENDCHAR
STARTCHAR C0123-{
ENCODING 123
SWIDTH 300 0
DWIDTH 4 0
BBX 3 13 0 -3
BITMAP
20
20
20
20
20
20
C0
20
20
20
20
20
20
ENDCHAR
STARTCHAR C0124-|
ENCODING 124
SWIDTH 225 0
DWIDTH 3 0
BBX 1 14 1 -4
BITMAP
80
80
80
80
80
80
80
80
80
80
80
80
80
80
ENDCHAR
STARTCHAR C0125-}
ENCODING 125
SWIDTH 300 0
DWIDTH 4 0
BBX 3 13 1 -3
BITMAP
80
80
80
80
80
80
60
80
80
80
80
80
80
ENDCHAR
STARTCHAR C0126-~
ENCODING 126
SWIDTH 525 0
DWIDTH 7 0
BBX 5 1 1 3
BITMAP
F8
ENDCHAR
STARTCHAR C0127
ENCODING 127
SWIDTH 975 0
DWIDTH 13 0
BBX 1 1 0 -1
BITMAP
00
ENDCHAR
STARTCHAR C0128
ENCODING 128
SWIDTH 600 0
DWIDTH 8 0
BBX 7 9 1 0
BITMAP
3C
40
40
F8
00
F8
40
42
3C
ENDCHAR
STARTCHAR C0129
ENCODING 129
SWIDTH 975 0
DWIDTH 13 0
BBX 1 1 0 -1
BITMAP
00
ENDCHAR
STARTCHAR C0130
ENCODING 130
SWIDTH 225 0
DWIDTH 3 0
BBX 1 3 1 -2
BITMAP
80
80
80
ENDCHAR
STARTCHAR C0131
ENCODING 131
SWIDTH 975 0
DWIDTH 13 0
BBX 1 1 0 -1
BITMAP
00
ENDCHAR
STARTCHAR C0132
ENCODING 132
SWIDTH 375 0
DWIDTH 5 0
BBX 3 3 1 -2
BITMAP
A0
A0
A0
ENDCHAR
STARTCHAR C0133
ENCODING 133
SWIDTH 600 0
DWIDTH 8 0
BBX 6 1 1 0
BITMAP
A4
ENDCHAR
STARTCHAR C0134
ENCODING 134
SWIDTH 525 0
DWIDTH 7 0
BBX 5 12 1 -2
BITMAP
20
20
20
F8
20
20
20
20
20
20
20
20
ENDCHAR
STARTCHAR C0135
ENCODING 135
SWIDTH 525 0
DWIDTH 7 0
BBX 5 12 1 -2
BITMAP
20
20
20
F8
20
20
20
F8
20
20
20
20
ENDCHAR
STARTCHAR C0136
ENCODING 136
SWIDTH 375 0
DWIDTH 5 0
BBX 4 2 1 8
BITMAP
40
B0
ENDCHAR
STARTCHAR C0137
ENCODING 137
SWIDTH 1125 0
DWIDTH 15 0
BBX 13 10 1 0
BITMAP
0200
E400
BC00
A400
E800
0800
1738
14C8
14A8
2738
ENDCHAR
STARTCHAR C0138
ENCODING 138
SWIDTH 975 0
DWIDTH 13 0
BBX 1 1 0 -1
BITMAP
00
ENDCHAR
STARTCHAR C0139
ENCODING 139
SWIDTH 300 0
DWIDTH 4 0
BBX 2 5 1 2
BITMAP
40
80
80
C0
40
ENDCHAR
STARTCHAR C0140
ENCODING 140
SWIDTH 900 0
DWIDTH 12 0
BBX 11 10 1 0
BITMAP
3FE0
4600
8200
8200
81C0
8100
8300
8200
4600
3FE0
ENDCHAR
STARTCHAR C0141
ENCODING 141
SWIDTH 975 0
DWIDTH 13 0
BBX 1 1 0 -1
BITMAP
00
ENDCHAR
STARTCHAR C0142
ENCODING 142
SWIDTH 975 0
DWIDTH 13 0
BBX 1 1 0 -1
BITMAP
00
ENDCHAR
STARTCHAR C0143
ENCODING 143
SWIDTH 975 0
DWIDTH 13 0
BBX 1 1 0 -1
BITMAP
00
ENDCHAR
STARTCHAR C0144
ENCODING 144
SWIDTH 975 0
DWIDTH 13 0
BBX 1 1 0 -1
BITMAP
00
ENDCHAR
STARTCHAR C0145
ENCODING 145
SWIDTH 225 0
DWIDTH 3 0
BBX 1 3 1 6
BITMAP
80
80
80
ENDCHAR
STARTCHAR C0146
ENCODING 146
SWIDTH 225 0
DWIDTH 3 0
BBX 1 3 1 6
BITMAP
80
80
80
ENDCHAR
STARTCHAR C0147
ENCODING 147
SWIDTH 375 0
DWIDTH 5 0
BBX 3 3 1 6
BITMAP
A0
A0
A0
ENDCHAR
STARTCHAR C0148
ENCODING 148
SWIDTH 375 0
DWIDTH 5 0
BBX 3 3 1 6
BITMAP
A0
A0
A0
ENDCHAR
STARTCHAR C0149
ENCODING 149
SWIDTH 300 0
DWIDTH 4 0
BBX 2 3 1 4
BITMAP
C0
C0
C0
ENDCHAR
STARTCHAR C0150
ENCODING 150
SWIDTH 525 0
DWIDTH 7 0
BBX 6 1 1 3
BITMAP
FC
ENDCHAR
STARTCHAR C0151
ENCODING 151
SWIDTH 825 0
DWIDTH 11 0
BBX 9 1 1 3
BITMAP
FF80
ENDCHAR
STARTCHAR C0152
ENCODING 152
SWIDTH 450 0
DWIDTH 6 0
BBX 5 1 1 8
BITMAP
F8
ENDCHAR
STARTCHAR C0153
ENCODING 153
SWIDTH 825 0
DWIDTH 11 0
BBX 9 6 1 4
BITMAP
F880
4C80
4D80
4A80
4A80
4880
ENDCHAR
STARTCHAR C0154
ENCODING 154
SWIDTH 975 0
DWIDTH 13 0
BBX 1 1 0 -1
BITMAP
00
ENDCHAR
STARTCHAR C0155
ENCODING 155
SWIDTH 300 0
DWIDTH 4 0
BBX 2 5 1 2
BITMAP
80
C0
40
80
80
ENDCHAR
STARTCHAR C0156
ENCODING 156
SWIDTH 900 0
DWIDTH 12 0
BBX 10 7 1 0
BITMAP
3180
CA40
8440
87C0
8400
8C00
7BC0
ENDCHAR
STARTCHAR C0157
ENCODING 157
SWIDTH 975 0
DWIDTH 13 0
BBX 1 1 0 -1
BITMAP
00
ENDCHAR
STARTCHAR C0158
ENCODING 158
SWIDTH 975 0
DWIDTH 13 0
BBX 1 1 0 -1
BITMAP
00
ENDCHAR
STARTCHAR C0159
ENCODING 159
SWIDTH 525 0
DWIDTH 7 0
BBX 7 12 0 0
BITMAP
28
00
82
42
44
28
28
10
10
10
10
10
ENDCHAR
STARTCHAR C0160
ENCODING 160
SWIDTH 225 0
DWIDTH 3 0
BBX 1 1 0 -1
BITMAP
00
ENDCHAR
STARTCHAR C0161
ENCODING 161
SWIDTH 225 0
DWIDTH 3 0
BBX 1 10 1 -3
BITMAP
80
00
00
80
80
80
80
80
80
80
ENDCHAR
STARTCHAR C0162
ENCODING 162
SWIDTH 525 0
DWIDTH 7 0
BBX 5 10 1 -2
BITMAP
20
30
E8
A0
A0
A0
A0
78
20
20
ENDCHAR
STARTCHAR C0163
ENCODING 163
SWIDTH 525 0
DWIDTH 7 0
BBX 5 9 1 0
BITMAP
78
80
80
40
F0
40
40
80
F8
ENDCHAR
STARTCHAR C0164
ENCODING 164
SWIDTH 600 0
DWIDTH 8 0
BBX 7 6 1 1
BITMAP
B6
4C
44
84
44
FE
ENDCHAR
STARTCHAR C0165
ENCODING 165
SWIDTH 600 0
DWIDTH 8 0
BBX 6 9 1 0
BITMAP
84
88
48
50
FC
20
FC
20
20
ENDCHAR
STARTCHAR C0166
ENCODING 166
SWIDTH 225 0
DWIDTH 3 0
BBX 1 12 1 -3
BITMAP
80
80
80
80
80
00
00
80
80
80
80
80
ENDCHAR
STARTCHAR C0167
ENCODING 167
SWIDTH 525 0
DWIDTH 7 0
BBX 5 13 1 -3
BITMAP
70
C8
80
40
70
88
88
48
30
18
08
88
F0
ENDCHAR
STARTCHAR C0168
ENCODING 168
SWIDTH 375 0
DWIDTH 5 0
BBX 3 1 1 8
BITMAP
A0
ENDCHAR
STARTCHAR C0169
ENCODING 169
SWIDTH 750 0
DWIDTH 10 0
BBX 8 8 1 2
BITMAP
3C
42
B9
A1
A1
A1
9E
7C
ENDCHAR
STARTCHAR C0170
ENCODING 170
SWIDTH 375 0
DWIDTH 5 0
BBX 4 4 1 5
BITMAP
E0
A0
A0
D0
ENDCHAR
STARTCHAR C0171
ENCODING 171
SWIDTH 525 0
DWIDTH 7 0
BBX 5 5 1 2
BITMAP
48
90
A0
D0
48
ENDCHAR
STARTCHAR C0172
ENCODING 172
SWIDTH 600 0
DWIDTH 8 0
BBX 6 3 1 1
BITMAP
FC
04
04
ENDCHAR
STARTCHAR C0173
ENCODING 173
SWIDTH 450 0
DWIDTH 6 0
BBX 4 1 1 3
BITMAP
F0
ENDCHAR
STARTCHAR C0174
ENCODING 174
SWIDTH 750 0
DWIDTH 10 0
BBX 8 8 1 2
BITMAP
3C
42
B9
A5
B9
A9
A6
7C
ENDCHAR
STARTCHAR C0175
ENCODING 175
SWIDTH 450 0
DWIDTH 6 0
BBX 4 1 1 8
BITMAP
F0
ENDCHAR
STARTCHAR C0176
ENCODING 176
SWIDTH 300 0
DWIDTH 4 0
BBX 3 4 1 5
BITMAP
C0
A0
A0
40
ENDCHAR
STARTCHAR C0177
ENCODING 177
SWIDTH 525 0
DWIDTH 7 0
BBX 6 7 1 0
BITMAP
20
20
FC
20
20
00
FC
ENDCHAR
STARTCHAR C0178
ENCODING 178
SWIDTH 375 0
DWIDTH 5 0
BBX 3 6 1 4
BITMAP
E0
20
20
40
80
E0
ENDCHAR
STARTCHAR C0179
ENCODING 179
SWIDTH 375 0
DWIDTH 5 0
BBX 3 6 1 4
BITMAP
E0
40
E0
20
A0
40
ENDCHAR
STARTCHAR C0180
ENCODING 180
SWIDTH 300 0
DWIDTH 4 0
BBX 2 2 1 8
BITMAP
40
80
ENDCHAR
STARTCHAR C0181
ENCODING 181
SWIDTH 600 0
DWIDTH 8 0
BBX 6 10 1 -3
BITMAP
84
84
84
84
8C
8C
F4
80
80
80
ENDCHAR
STARTCHAR C0182
ENCODING 182
SWIDTH 600 0
DWIDTH 8 0
BBX 6 13 1 -3
BITMAP
7C
E4
E4
E4
E4
64
24
24
24
24
24
24
24
ENDCHAR
STARTCHAR C0183
ENCODING 183
SWIDTH 225 0
DWIDTH 3 0
BBX 1 1 1 3
BITMAP
80
ENDCHAR
STARTCHAR C0184
ENCODING 184
SWIDTH 300 0
DWIDTH 4 0
BBX 3 3 1 -3
BITMAP
80
60
C0
ENDCHAR
STARTCHAR C0185
ENCODING 185
SWIDTH 300 0
DWIDTH 4 0
BBX 3 6 0 4
BITMAP
20
60
A0
20
20
20
ENDCHAR
STARTCHAR C0186
ENCODING 186
SWIDTH 375 0
DWIDTH 5 0
BBX 3 4 1 5
BITMAP
E0
A0
A0
C0
ENDCHAR
STARTCHAR C0187
ENCODING 187
SWIDTH 525 0
DWIDTH 7 0
BBX 5 5 1 2
BITMAP
A0
D0
48
90
A0
ENDCHAR
STARTCHAR C0188
ENCODING 188
SWIDTH 825 0
DWIDTH 11 0
BBX 9 10 1 0
BITMAP
4400
C400
C400
4800
4880
4980
1280
1780
2080
2080
ENDCHAR
STARTCHAR C0189
ENCODING 189
SWIDTH 825 0
DWIDTH 11 0
BBX 9 10 1 0
BITMAP
4400
C400
C400
4800
4900
4A80
1080
1100
2200
2380
ENDCHAR
STARTCHAR C0190
ENCODING 190
SWIDTH 900 0
DWIDTH 12 0
BBX 10 10 1 0
BITMAP
E200
4200
E400
2400
AC80
4880
0980
0BC0
1080
1080
ENDCHAR
STARTCHAR C0191
ENCODING 191
SWIDTH 450 0
DWIDTH 6 0
BBX 4 10 1 -3
BITMAP
20
00
00
20
20
40
80
80
90
F0
ENDCHAR
STARTCHAR C0192
ENCODING 192
SWIDTH 600 0
DWIDTH 8 0
BBX 8 13 0 0
BITMAP
10
10
08
08
18
18
24
24
24
FF
42
42
81
ENDCHAR
STARTCHAR C0193
ENCODING 193
SWIDTH 600 0
DWIDTH 8 0
BBX 8 13 0 0
BITMAP
08
08
10
08
18
18
24
24
24
FF
42
42
81
ENDCHAR
STARTCHAR C0194
ENCODING 194
SWIDTH 600 0
DWIDTH 8 0
BBX 8 13 0 0
BITMAP
08
14
20
08
18
18
24
24
24
FF
42
42
81
ENDCHAR
STARTCHAR C0195
ENCODING 195
SWIDTH 600 0
DWIDTH 8 0
BBX 8 12 0 0
BITMAP
3E
00
08
18
18
24
24
24
FF
42
42
81
ENDCHAR
STARTCHAR C0196
ENCODING 196
SWIDTH 600 0
DWIDTH 8 0
BBX 8 12 0 0
BITMAP
14
00
08
18
18
24
24
24
FF
42
42
81
ENDCHAR
STARTCHAR C0197
ENCODING 197
SWIDTH 600 0
DWIDTH 8 0
BBX 8 13 0 0
BITMAP
18
18
08
08
18
18
24
24
24
FF
42
42
81
ENDCHAR
STARTCHAR C0198
ENCODING 198
SWIDTH 825 0
DWIDTH 11 0
BBX 11 10 0 0
BITMAP
0F80
1800
1800
2800
2780
2400
FC00
4400
4400
83E0
ENDCHAR
STARTCHAR C0199
ENCODING 199
SWIDTH 600 0
DWIDTH 8 0
BBX 7 13 1 -3
BITMAP
3C
46
80
80
80
80
80
80
42
3C
10
08
38
ENDCHAR
STARTCHAR C0200
ENCODING 200
SWIDTH 600 0
DWIDTH 8 0
BBX 6 13 1 0
BITMAP
20
20
10
FC
80
80
80
F8
80
80
80
80
FC
ENDCHAR
STARTCHAR C0201
ENCODING 201
SWIDTH 600 0
DWIDTH 8 0
BBX 6 13 1 0
BITMAP
10
10
20
FC
80
80
80
F8
80
80
80
80
FC
ENDCHAR
STARTCHAR C0202
ENCODING 202
SWIDTH 600 0
DWIDTH 8 0
BBX 6 13 1 0
BITMAP
30
28
40
FC
80
80
80
F8
80
80
80
80
FC
ENDCHAR
STARTCHAR C0203
ENCODING 203
SWIDTH 600 0
DWIDTH 8 0
BBX 6 12 1 0
BITMAP
28
00
FC
80
80
80
F8
80
80
80
80
FC
ENDCHAR
STARTCHAR C0204
ENCODING 204
SWIDTH 450 0
DWIDTH 6 0
BBX 5 13 0 0
BITMAP
40
20
10
F8
20
20
20
20
20
20
20
20
F8
ENDCHAR
STARTCHAR C0205
ENCODING 205
SWIDTH 450 0
DWIDTH 6 0
BBX 5 13 0 0
BITMAP
10
10
20
F8
20
20
20
20
20
20
20
20
F8
ENDCHAR
STARTCHAR C0206
ENCODING 206
SWIDTH 450 0
DWIDTH 6 0
BBX 5 13 0 0
BITMAP
20
50
08
F8
20
20
20
20
20
20
20
20
F8
ENDCHAR
STARTCHAR C0207
ENCODING 207
SWIDTH 450 0
DWIDTH 6 0
BBX 5 12 0 0
BITMAP
50
00
F8
20
20
20
20
20
20
20
20
F8
ENDCHAR
STARTCHAR C0208
ENCODING 208
SWIDTH 675 0
DWIDTH 9 0
BBX 9 10 0 0
BITMAP
7C00
2200
2100
2100
2080
F880
2080
2100
2300
7E00
ENDCHAR
STARTCHAR C0209
ENCODING 209
SWIDTH 675 0
DWIDTH 9 0
BBX 7 12 1 0
BITMAP
7C
00
82
C2
E2
A2
92
92
8A
8A
86
86
ENDCHAR
STARTCHAR C0210
ENCODING 210
SWIDTH 750 0
DWIDTH 10 0
BBX 8 13 1 0
BITMAP
10
10
08
3C
42
C1
81
81
81
81
81
42
3C
ENDCHAR
STARTCHAR C0211
ENCODING 211
SWIDTH 750 0
DWIDTH 10 0
BBX 8 13 1 0
BITMAP
08
08
10
3C
42
C1
81
81
81
81
81
42
3C
ENDCHAR
STARTCHAR C0212
ENCODING 212
SWIDTH 750 0
DWIDTH 10 0
BBX 8 13 1 0
BITMAP
18
3C
00
3C
42
C1
81
81
81
81
81
42
3C
ENDCHAR
STARTCHAR C0213
ENCODING 213
SWIDTH 750 0
DWIDTH 10 0
BBX 8 12 1 0
BITMAP
3C
00
3C
42
C1
81
81
81
81
81
42
3C
ENDCHAR
STARTCHAR C0214
ENCODING 214
SWIDTH 750 0
DWIDTH 10 0
BBX 8 12 1 0
BITMAP
3C
00
3C
42
C1
81
81
81
81
81
42
3C
ENDCHAR
STARTCHAR C0215
ENCODING 215
SWIDTH 525 0
DWIDTH 7 0
BBX 5 5 1 1
BITMAP
88
50
20
50
98
ENDCHAR
STARTCHAR C0216
ENCODING 216
SWIDTH 750 0
DWIDTH 10 0
BBX 8 11 1 -1
BITMAP
3C
46
CB
89
89
91
91
A3
62
3C
40
ENDCHAR
STARTCHAR C0217
ENCODING 217
SWIDTH 675 0
DWIDTH 9 0
BBX 7 13 1 0
BITMAP
20
30
10
82
82
82
82
82
82
82
82
44
78
ENDCHAR
STARTCHAR C0218
ENCODING 218
SWIDTH 675 0
DWIDTH 9 0
BBX 7 13 1 0
BITMAP
08
18
10
82
82
82
82
82
82
82
82
44
78
ENDCHAR
STARTCHAR C0219
ENCODING 219
SWIDTH 675 0
DWIDTH 9 0
BBX 7 13 1 0
BITMAP
10
28
00
82
82
82
82
82
82
82
82
44
78
ENDCHAR
STARTCHAR C0220
ENCODING 220
SWIDTH 675 0
DWIDTH 9 0
BBX 7 12 1 0
BITMAP
28
00
82
82
82
82
82
82
82
82
44
78
ENDCHAR
STARTCHAR C0221
ENCODING 221
SWIDTH 525 0
DWIDTH 7 0
BBX 7 13 0 0
BITMAP
08
08
10
82
42
44
28
28
10
10
10
10
10
ENDCHAR
STARTCHAR C0222
ENCODING 222
SWIDTH 525 0
DWIDTH 7 0
BBX 6 10 1 0
BITMAP
80
80
F8
84
84
84
F8
80
80
80
ENDCHAR
STARTCHAR C0223
ENCODING 223
SWIDTH 525 0
DWIDTH 7 0
BBX 7 10 0 0
BITMAP
38
28
4C
C8
50
50
4C
46
42
5C
ENDCHAR
STARTCHAR C0224
ENCODING 224
SWIDTH 525 0
DWIDTH 7 0
BBX 6 10 1 0
BITMAP
20
30
00
28
D8
88
88
88
88
74
ENDCHAR
STARTCHAR C0225
ENCODING 225
SWIDTH 525 0
DWIDTH 7 0
BBX 6 10 1 0
BITMAP
10
30
00
28
D8
88
88
88
88
74
ENDCHAR
STARTCHAR C0226
ENCODING 226
SWIDTH 525 0
DWIDTH 7 0
BBX 6 10 1 0
BITMAP
20
58
00
28
D8
88
88
88
88
74
ENDCHAR
STARTCHAR C0227
ENCODING 227
SWIDTH 525 0
DWIDTH 7 0
BBX 6 9 1 0
BITMAP
7C
00
28
D8
88
88
88
88
74
ENDCHAR
STARTCHAR C0228
ENCODING 228
SWIDTH 525 0
DWIDTH 7 0
BBX 6 9 1 0
BITMAP
50
00
28
D8
88
88
88
88
74
ENDCHAR
STARTCHAR C0229
ENCODING 229
SWIDTH 525 0
DWIDTH 7 0
BBX 6 10 1 0
BITMAP
60
50
20
28
D8
88
88
88
88
74
ENDCHAR
STARTCHAR C0230
ENCODING 230
SWIDTH 825 0
DWIDTH 11 0
BBX 10 7 0 0
BITMAP
3180
4A40
0440
7FC0
4400
CC00
7BC0
ENDCHAR
STARTCHAR C0231
ENCODING 231
SWIDTH 525 0
DWIDTH 7 0
BBX 5 10 1 -3
BITMAP
30
C8
80
80
80
80
78
20
10
70
ENDCHAR
STARTCHAR C0232
ENCODING 232
SWIDTH 525 0
DWIDTH 7 0
BBX 6 10 0 0
BITMAP
10
18
00
18
24
44
FC
40
40
3C
ENDCHAR
STARTCHAR C0233
ENCODING 233
SWIDTH 525 0
DWIDTH 7 0
BBX 6 10 0 0
BITMAP
08
18
00
18
24
44
FC
40
40
3C
ENDCHAR
STARTCHAR C0234
ENCODING 234
SWIDTH 525 0
DWIDTH 7 0
BBX 6 10 0 0
BITMAP
18
2C
00
18
24
44
FC
40
40
3C
ENDCHAR
STARTCHAR C0235
ENCODING 235
SWIDTH 525 0
DWIDTH 7 0
BBX 6 9 0 0
BITMAP
28
00
18
24
44
FC
40
40
3C
ENDCHAR
STARTCHAR C0236
ENCODING 236
SWIDTH 225 0
DWIDTH 3 0
BBX 2 10 0 0
BITMAP
80
40
00
40
40
40
40
40
40
40
ENDCHAR
STARTCHAR C0237
ENCODING 237
SWIDTH 225 0
DWIDTH 3 0
BBX 2 10 1 0
BITMAP
40
80
00
80
80
80
80
80
80
80
ENDCHAR
STARTCHAR C0238
ENCODING 238
SWIDTH 225 0
DWIDTH 3 0
BBX 3 10 0 0
BITMAP
40
A0
00
40
40
40
40
40
40
40
ENDCHAR
STARTCHAR C0239
ENCODING 239
SWIDTH 225 0
DWIDTH 3 0
BBX 3 9 0 0
BITMAP
A0
00
40
40
40
40
40
40
40
ENDCHAR
STARTCHAR C0240
ENCODING 240
SWIDTH 525 0
DWIDTH 7 0
BBX 6 10 1 0
BITMAP
48
30
68
08
F8
8C
84
84
88
70
ENDCHAR
STARTCHAR C0241
ENCODING 241
SWIDTH 600 0
DWIDTH 8 0
BBX 6 9 1 0
BITMAP
F8
00
B0
C8
88
88
88
88
84
ENDCHAR
STARTCHAR C0242
ENCODING 242
SWIDTH 525 0
DWIDTH 7 0
BBX 6 10 1 0
BITMAP
40
20
00
30
C8
84
84
84
88
78
ENDCHAR
STARTCHAR C0243
ENCODING 243
SWIDTH 525 0
DWIDTH 7 0
BBX 6 10 1 0
BITMAP
10
20
00
30
C8
84
84
84
88
78
ENDCHAR
STARTCHAR C0244
ENCODING 244
SWIDTH 525 0
DWIDTH 7 0
BBX 6 10 1 0
BITMAP
20
58
00
30
C8
84
84
84
88
78
ENDCHAR
STARTCHAR C0245
ENCODING 245
SWIDTH 525 0
DWIDTH 7 0
BBX 6 9 1 0
BITMAP
F8
00
30
C8
84
84
84
88
78
ENDCHAR
STARTCHAR C0246
ENCODING 246
SWIDTH 525 0
DWIDTH 7 0
BBX 6 9 1 0
BITMAP
50
00
30
C8
84
84
84
88
78
ENDCHAR
STARTCHAR C0247
ENCODING 247
SWIDTH 525 0
DWIDTH 7 0
BBX 5 5 1 1
BITMAP
20
00
F8
00
20
ENDCHAR
STARTCHAR C0248
ENCODING 248
SWIDTH 525 0
DWIDTH 7 0
BBX 6 9 1 -1
BITMAP
08
30
D8
94
A4
A4
C8
78
40
ENDCHAR
STARTCHAR C0249
ENCODING 249
SWIDTH 600 0
DWIDTH 8 0
BBX 6 10 1 0
BITMAP
40
60
00
88
8C
88
88
88
88
74
ENDCHAR
STARTCHAR C0250
ENCODING 250
SWIDTH 600 0
DWIDTH 8 0
BBX 6 10 1 0
BITMAP
10
30
00
88
8C
88
88
88
88
74
ENDCHAR
STARTCHAR C0251
ENCODING 251
SWIDTH 600 0
DWIDTH 8 0
BBX 6 10 1 0
BITMAP
20
58
00
88
8C
88
88
88
88
74
ENDCHAR
STARTCHAR C0252
ENCODING 252
SWIDTH 600 0
DWIDTH 8 0
BBX 6 9 1 0
BITMAP
50
00
88
8C
88
88
88
88
74
ENDCHAR
STARTCHAR C0253
ENCODING 253
SWIDTH 525 0
DWIDTH 7 0
BBX 6 13 1 -3
BITMAP
10
30
00
88
8C
88
88
88
88
78
08
08
F0
ENDCHAR
STARTCHAR C0254
ENCODING 254
SWIDTH 525 0
DWIDTH 7 0
BBX 6 13 1 -3
BITMAP
80
80
80
B0
C8
84
84
84
88
F8
80
80
80
ENDCHAR
STARTCHAR C0255
ENCODING 255
SWIDTH 525 0
DWIDTH 7 0
BBX 6 12 1 -3
BITMAP
50
00
88
8C
88
88
88
88
78
08
08
F0
ENDCHAR
ENDFONT

